<?xml version="1.0" encoding="UTF-8" standalone="no"?>
<!DOCTYPE svg  PUBLIC '-//W3C//DTD SVG 1.1//EN'  'http://www.w3.org/Graphics/SVG/1.1/DTD/svg11.dtd'>
<svg version="1.1" xmlns="http://www.w3.org/2000/svg">
<defs>
<font id="Inconsolata-Bold" horiz-adv-x="1024">
<font-face units-per-em="2048" font-family="Inconsolata" panose-1="0 0 8 9 0 0 0 0 0 0" underline-thickness="102" unicode-range="U+0020-030A" bbox="-870 -420 1036 1679" underline-position="-512" font-weight="700" x-height="956" cap-height="1276" ascent="1638" descent="-410"/>
<missing-glyph/>
<glyph glyph-name="space" unicode=" "/>
<glyph glyph-name="exclam" unicode="!" d="M350 1178l-1 24q0 89 38.5 130.5t106.5 41.5q66 0 105 -40t39 -128q0 -18 -1 -28l-53 -772h-185zM410.5 -0.5q-36.5 19.5 -57.5 53.5t-21 74q0 39 21.5 73.5t57.5 55t78 20.5q45 0 82 -21.5t58.5 -56t21.5 -71.5q0 -39 -22.5 -73t-60 -54t-79.5 -20t-78.5 19.5z"/>
<glyph glyph-name="quotedbl" unicode='&quot;' d="M460 1362q0 -171 -5 -251t-16 -178l-11 -99h-140l-11 99q-11 97 -16 177t-5 252h204zM768 1362q0 -171 -5 -251t-16 -178l-11 -99h-140l-11 99q-11 97 -16 177t-5 252h204z"/>
<glyph glyph-name="numbersign" unicode="#" d="M541 360h-115l-41 -335l-205 -2l37 335h-178l12 160h189l30 279h-202l10 161h211l37 324l211 2l-39 -321h110l37 315l211 2l-37 -313h172l-20 -164h-172l-31 -277h182l-12 -159h-188l-41 -340l-211 -13zM557 522l33 277h-115l-31 -277h113z"/>
<glyph glyph-name="dollar" unicode="$" d="M436 14q-95 16 -182 63.5t-154 121.5l125 176q20 -6 30 -19t18 -33q5 -15 10 -20q37 -40 75.5 -65t87.5 -35v366q-152 56 -230.5 136.5t-78.5 195.5q0 75 37 139.5t104.5 110t157.5 63.5v119h205q12 -5 12 -20q0 -6 -5 -23q-7 -35 -7 -41v-32q83 -17 156 -64.5 t133 -120.5l-121 -153q-18 0 -26.5 10.5t-15.5 30.5q-6 18 -11 26q-22 25 -55.5 46t-69.5 30v-301q168 -53 249 -134.5t81 -211.5q0 -84 -39 -157.5t-111 -125.5t-170 -72v-110h-205v104zM446 1024q-43 -11 -68.5 -40t-25.5 -71q0 -36 23 -68.5t71 -49.5v229zM752 362 q0 99 -121 142v-289q121 43 121 147z"/>
<glyph glyph-name="percent" unicode="%" d="M154.5 775.5q-58.5 36.5 -93 101t-34.5 143.5q0 76 34.5 140t93 101t126.5 37q69 0 127 -37.5t92.5 -101.5t34.5 -141q0 -81 -33 -144.5t-91 -99t-130 -35.5q-68 0 -126.5 36.5zM811 1276h147l-731 -1276h-141zM351.5 909.5q25.5 41.5 25.5 108.5q0 66 -25.5 108.5 t-75.5 42.5q-49 0 -74.5 -42.5t-25.5 -108.5q0 -67 25.5 -108.5t74.5 -41.5q50 0 75.5 41.5zM621 16.5q-58 36.5 -92.5 100.5t-34.5 143q0 76 34.5 140.5t93 101.5t126.5 37t126.5 -37.5t92.5 -102t34 -141.5q0 -81 -33 -144t-90.5 -98.5t-129.5 -35.5q-69 0 -127 36.5z M818.5 150q25.5 41 25.5 108q0 66 -25.5 109t-75.5 43q-49 0 -74.5 -43t-25.5 -109q0 -67 25 -108t75 -41t75.5 41z"/>
<glyph glyph-name="ampersand" unicode="&amp;" d="M725 115q-65 -65 -150 -106.5t-169 -41.5q-110 0 -188 43.5t-117.5 120.5t-39.5 174q0 77 33 154.5t91 142t130 105.5q-70 77 -106.5 156t-36.5 147q0 79 41 144.5t110.5 103.5t151.5 38q86 0 154 -40.5t105.5 -106.5t37.5 -139q0 -63 -25.5 -129t-71.5 -121t-106 -88 l174 -250q34 45 54 110q1 9 1 26q1 26 4.5 41t18.5 26l185 -129q-86 -145 -146 -232l137 -180l-172 -127zM544 890.5q25 52.5 25 108.5q0 54 -25 90.5t-67 36.5q-46 0 -71 -33t-25 -85q0 -82 90 -199q48 29 73 81.5zM533.5 179q45.5 32 80.5 85l-208 299q-62 -38 -91.5 -102 t-29.5 -133q0 -45 19.5 -87t53.5 -68t76 -26q54 0 99.5 32z"/>
<glyph glyph-name="quotesingle" unicode="&apos;" d="M614 1362q0 -171 -5 -251t-16 -178l-11 -99h-140l-11 99q-11 97 -16 177t-5 252h204z"/>
<glyph glyph-name="parenleft" unicode="(" d="M497.5 -161q-135.5 137 -209 311.5t-73.5 359.5q0 183 71 352.5t203.5 303t311.5 208.5l53 -178q-205 -105 -315.5 -284t-110.5 -408q0 -149 52 -286t151 -245t235 -172l-53 -174q-180 75 -315.5 212z"/>
<glyph glyph-name="parenright" unicode=")" d="M215 -199q136 64 235 172t151 245t52 286q0 229 -110.5 408t-315.5 284l53 178q179 -75 311.5 -208.5t203.5 -303t71 -352.5q0 -185 -73.5 -359.5t-209 -311.5t-315.5 -212z"/>
<glyph glyph-name="asterisk" unicode="*" d="M145 369l240 278l-319 99l71 186l293 -137l-29 315h242l-43 -315l285 129l76 -176l-320 -99l233 -280l-163 -127l-199 301l-205 -303z"/>
<glyph glyph-name="plus" unicode="+" d="M424 580h-340v174h340v329h199v-329h327v-174h-327v-359h-199v359z"/>
<glyph glyph-name="comma" unicode="," d="M305 -242q57 54 95 111.5t38 89.5q0 9 -8.5 19t-26.5 27q-29 27 -46 50t-17 51q0 40 19 73t54.5 52t80.5 19q43 0 82 -24.5t62.5 -67.5t23.5 -97q0 -81 -60 -181.5t-182 -225.5z"/>
<glyph glyph-name="hyphen" unicode="-" d="M131 750h768v-187h-768v187z"/>
<glyph glyph-name="period" unicode="." d="M421.5 -8.5q-32.5 18.5 -51 51t-18.5 70.5q0 37 18.5 68.5t51 50t70.5 18.5q37 0 68.5 -18.5t50 -50t18.5 -68.5q0 -38 -18.5 -70.5t-50 -51t-68.5 -18.5q-38 0 -70.5 18.5z"/>
<glyph glyph-name="slash" unicode="/" d="M106 -10l635 1376l179 -92l-633 -1370z"/>
<glyph glyph-name="zero" unicode="0" d="M750 1221q99 -79 151.5 -229.5t52.5 -360.5t-52.5 -360.5t-151.5 -230t-238 -79.5t-238 79.5t-151.5 230t-52.5 360.5t52.5 360.5t151.5 229.5t238 79t238 -79zM392 1058.5q-50 -57.5 -76.5 -166.5t-26.5 -261q0 -78 8 -153l395 469q-28 82 -74 125.5t-106 43.5 q-70 0 -120 -57.5zM632 203q50 58 76.5 167t26.5 261q0 90 -9 163l-397 -472q28 -86 74.5 -131.5t108.5 -45.5q70 0 120 58z"/>
<glyph glyph-name="one" unicode="1" d="M428 1016l-219 -66l-55 140l346 186h153v-1276h-225v1016z"/>
<glyph glyph-name="two" unicode="2" d="M117 168q247 237 354.5 350t164 210.5t56.5 199.5q0 81 -51 128.5t-137 47.5q-127 0 -207 -80q-18 -18 -25 -32.5t-7 -28.5l1 -11l-14 -19l-14 11l-152 115q74 119 181.5 182.5t240.5 63.5q114 0 205 -47.5t142.5 -132.5t51.5 -195q0 -109 -51.5 -209t-135 -194 t-245.5 -256l-82 -81h417q33 0 48.5 3.5t27.5 14.5h23v-208h-792v168z"/>
<glyph glyph-name="three" unicode="3" d="M76 133l95 191l8 16l21 -10q2 -5 3 -12.5t1 -10.5q1 -18 5.5 -32t18.5 -29q44 -45 104 -65.5t145 -20.5q94 0 146.5 56.5t52.5 150.5q0 103 -57.5 153.5t-194.5 50.5q-48 0 -107 -6v185q15 -1 43 -1q158 0 219.5 51t61.5 142q0 74 -43.5 120t-122.5 46q-69 0 -127.5 -24 t-122.5 -83l-129 132q73 87 170 129.5t207 42.5q117 0 207.5 -44.5t141 -122t50.5 -173.5q0 -103 -52.5 -177.5t-125.5 -107.5q89 -31 150 -112.5t61 -209.5q0 -111 -51.5 -201.5t-148.5 -143t-230 -52.5q-262 0 -399 172z"/>
<glyph glyph-name="four" unicode="4" d="M557 315h-487v144l553 817h165v-770h170v-193h-170v-313h-231v315zM565 500v381l-258 -381h258z"/>
<glyph glyph-name="five" unicode="5" d="M109 203l170 130l15 11l14 -19q-1 -5 -1 -16q0 -27 25 -58q32 -41 75 -64t105 -23q59 0 105 28.5t73 84.5t27 137q0 119 -54 185.5t-143 66.5q-61 0 -108 -29.5t-93 -93.5l-147 63l47 670h686v-195h-485l-17 -247q75 22 142 22q121 0 211 -53t139 -153t49 -238 q0 -133 -52 -235t-148 -159t-224 -57q-282 0 -411 242z"/>
<glyph glyph-name="six" unicode="6" d="M302.5 41q-96.5 80 -147.5 222t-51 325q0 219 59.5 380.5t167.5 248t249 86.5q86 0 168 -38.5t153 -111.5l-144 -153l-12 -13l-17 16q-2 22 -8 36t-29 33q-21 17 -47 25.5t-64 8.5q-54 0 -105 -35t-89.5 -113.5t-51.5 -203.5q41 41 99 68.5t112 27.5q106 0 194 -56 t139.5 -155.5t51.5 -224.5q0 -126 -53.5 -229.5t-145 -163.5t-201.5 -60q-131 0 -227.5 80zM620 200.5q38 28.5 60 83t22 130.5t-25 129t-64 78.5t-81 25.5q-55 0 -107.5 -33.5t-86.5 -89.5q0 -108 25.5 -187.5t70 -122t101.5 -42.5q47 0 85 28.5z"/>
<glyph glyph-name="seven" unicode="7" d="M433.5 576q94.5 261 193.5 499h-492v201h768v-117q-221 -503 -422 -1159h-248q106 315 200.5 576z"/>
<glyph glyph-name="eight" unicode="8" d="M295.5 10.5q-97.5 49.5 -153.5 134.5t-56 187q0 100 64.5 193.5t171.5 152.5q-79 52 -128 129t-49 158q0 93 51 172t138 125.5t190 46.5q104 0 189.5 -45t134.5 -121.5t49 -165.5q0 -81 -52.5 -160t-133.5 -133q102 -57 165.5 -150t63.5 -196q0 -105 -57 -191t-155 -136 t-216 -50q-119 0 -216.5 49.5zM632.5 866q33.5 51 33.5 105q0 36 -20 67.5t-54 50.5t-74 19t-72.5 -18t-50.5 -48.5t-18 -66.5q0 -109 168 -197q54 37 87.5 88zM609.5 191q41.5 23 65 62t23.5 87q0 73 -57 137t-152 98q-71 -37 -116 -98t-45 -131q0 -47 25.5 -88t69 -65.5 t93.5 -24.5q52 0 93.5 23z"/>
<glyph glyph-name="nine" unicode="9" d="M810.5 1147.5q100.5 -155.5 100.5 -471.5q0 -715 -438 -715q-101 0 -200 38t-179 114l138 154l12 13l17 -15q2 -17 11.5 -29.5t37.5 -29.5q67 -40 151 -40q80 0 126 34.5t68 108.5t30 203q-91 -98 -216 -98q-96 0 -184.5 57t-143.5 158t-55 227q0 124 55 226.5t153 161.5 t222 59q194 0 294.5 -155.5zM614.5 652.5q41.5 36.5 75.5 109.5q-3 134 -22.5 207t-55 101t-92.5 28q-97 0 -152 -67t-55 -189q0 -113 48.5 -169.5t138.5 -56.5q73 0 114.5 36.5z"/>
<glyph glyph-name="colon" unicode=":" d="M403 631q-35 19 -56 51.5t-21 69.5t21 69t56 51t74 19q37 0 73 -18t58.5 -50t22.5 -71q0 -37 -21 -69.5t-56.5 -51.5t-76.5 -19q-39 0 -74 19zM401 -8.5q-35 18.5 -55 50.5t-20 69q0 38 21 70.5t56 51.5t74 19q37 0 73 -18.5t58.5 -51t22.5 -71.5q0 -37 -20.5 -68.5 t-56 -50.5t-77.5 -19q-41 0 -76 18.5z"/>
<glyph glyph-name="semicolon" unicode=";" d="M403 631q-35 19 -56 51.5t-21 69.5t21 69t56 51t74 19q37 0 73 -18t58.5 -50t22.5 -71q0 -37 -21 -69.5t-56.5 -51.5t-76.5 -19q-39 0 -74 19zM289 -242q58 54 96.5 111.5t38.5 89.5q0 9 -8.5 19t-26.5 27q-29 27 -46 50t-17 51q0 40 19 73t53.5 52t78.5 19t83 -24.5 t63 -67.5t24 -97q0 -81 -60 -181.5t-181 -225.5z"/>
<glyph glyph-name="less" unicode="&lt;" d="M66 604v119l888 469v-203l-639 -327l646 -363v-219z"/>
<glyph glyph-name="equal" unicode="=" d="M84 940h866v-174h-866v174zM84 563h866v-174h-866v174z"/>
<glyph glyph-name="greater" unicode="&gt;" d="M76 299l643 363l-641 327v203l893 -469v-119l-895 -524v219z"/>
<glyph glyph-name="question" unicode="?" d="M432 492q0 62 20.5 113.5t50 90t78.5 90.5q43 45 68.5 77.5t42.5 72.5t17 86q0 79 -47.5 125.5t-139.5 46.5q-125 0 -213 -96q-21 -24 -27 -39t-4 -33l-14 -19l-14 11l-137 123q73 110 182 172.5t235 62.5q114 0 200.5 -49t133.5 -129.5t47 -171.5q0 -70 -20 -122.5 t-49 -88t-78 -82.5q-44 -42 -69.5 -72.5t-42.5 -72.5t-17 -96v-113h-203v113zM468.5 -8.5q-32.5 18.5 -51 51t-18.5 70.5q0 37 18.5 68.5t51 50t70.5 18.5q37 0 68.5 -18.5t50 -50t18.5 -68.5q0 -38 -18.5 -70.5t-50 -51t-68.5 -18.5q-38 0 -70.5 18.5z"/>
<glyph glyph-name="at" unicode="@" d="M324 48.5q-125 77.5 -199 231t-74 369.5q0 212 72 361.5t188 224t246 74.5q194 0 303 -133t109 -400v-442h-187v63q-27 -34 -73 -56t-97 -22q-78 0 -141.5 37t-100 101.5t-36.5 144.5q0 156 106 240.5t328 87.5q-9 98 -68 157.5t-149 59.5q-80 0 -151.5 -56t-115.5 -168 t-44 -272q0 -159 51 -275.5t136.5 -177.5t186.5 -61q124 0 222 84l82 -151q-70 -54 -146.5 -76.5t-169.5 -22.5q-153 0 -278 77.5zM722 512q30 31 42 94t12 170q-81 -1 -136.5 -23t-82.5 -58t-27 -79q0 -61 29.5 -98t77.5 -37q55 0 85 31z"/>
<glyph glyph-name="A" unicode="A" d="M675 330h-326l-93 -330h-236l426 1276h134l426 -1276h-240zM631 489l-117 424l-120 -424h237z"/>
<glyph glyph-name="B" unicode="B" d="M82 1276h387q224 0 335 -88.5t111 -241.5q0 -77 -42 -150t-113 -112q59 -28 105.5 -77.5t73 -110t26.5 -121.5q0 -175 -124.5 -275t-373.5 -100h-385v1276zM451 778q123 0 178 42t55 114q0 41 -23.5 75.5t-71.5 55t-118 20.5h-160v-307h140zM489 195q115 0 175.5 42.5 t60.5 143.5q0 96 -64.5 153.5t-203.5 57.5h-146v-397h178z"/>
<glyph glyph-name="C" unicode="C" d="M305 37q-114 74 -180 224.5t-66 369.5q0 237 76.5 389t195 220.5t251.5 68.5q145 0 251 -77t164 -214l-166 -81l-16 -8l-10 21q3 9 3 19q0 21 -24 57q-69 98 -196 98q-148 0 -219.5 -128t-71.5 -355q0 -139 35.5 -251.5t100 -177.5t145.5 -65q130 0 231 179l174 -113 q-72 -123 -178 -186.5t-242 -63.5q-144 0 -258 74z"/>
<glyph glyph-name="D" unicode="D" d="M90 1276h330q163 0 259.5 -43.5t164.5 -134.5q131 -178 131 -469q0 -302 -140.5 -465.5t-439.5 -163.5h-305v1276zM391 180q179 0 266.5 113t87.5 330q0 462 -333 462h-99v-905h78z"/>
<glyph glyph-name="E" unicode="E" d="M115 1276h831v-197h-608v-315h504v-201h-504v-366h604v-197h-827v1276z"/>
<glyph glyph-name="F" unicode="F" d="M139 1276h793v-195h-563v-299h454v-192h-454v-590h-230v1276z"/>
<glyph glyph-name="G" unicode="G" d="M272 48q-117 85 -178 237.5t-61 353.5q0 248 85 398t203.5 211t231.5 61q128 0 234 -67.5t169 -182.5l-154 -149l-12 -12l-16 16q0 3 -1 16.5t-7 28.5t-17 32q-35 55 -81 89t-119 34q-74 0 -137 -47t-102.5 -150.5t-39.5 -263.5q0 -151 36 -263.5t100.5 -172t146.5 -59.5 q113 0 182 53v240h-217v194h434v-536q-91 -76 -188 -111t-211 -35q-164 0 -281 85z"/>
<glyph glyph-name="H" unicode="H" d="M88 1276h252v-23q-11 -12 -14 -26.5t-2 -48.5v-420h376v518h252v-23q-11 -12 -14 -26.5t-2 -48.5v-1178h-236v567h-376v-567h-236v1276z"/>
<glyph glyph-name="I" unicode="I" d="M150 190h247v895h-235v191h712v-191h-247v-897h258v-188h-735v190z"/>
<glyph glyph-name="J" unicode="J" d="M204 10.5q-87 45.5 -153 132.5l130 148l12 14l17 -15q1 -5 2 -19t8 -28t22 -29q27 -27 58 -39.5t69 -12.5q57 0 92 28t51 88.5t16 159.5v647h-237v191h659v-191h-192v-673q0 -150 -48.5 -250.5t-131 -148.5t-185.5 -48q-102 0 -189 45.5z"/>
<glyph glyph-name="K" unicode="K" d="M379 582l-55 -60v-522h-236v1276h252v-23q-11 -12 -14 -26.5t-2 -48.5v-390l434 504q72 -16 119 -16h141l-475 -543l493 -731l-278 -12z"/>
<glyph glyph-name="L" unicode="L" d="M125 1276h251v-23q-11 -12 -14 -26.5t-2 -48.5v-985h580v-193h-815v1276z"/>
<glyph glyph-name="M" unicode="M" d="M61 1276h242l215 -600l213 602h244v-1278h-207v926l-178 -482h-152l-172 482v-926h-205v1276z"/>
<glyph glyph-name="N" unicode="N" d="M66 1276h280l406 -914v914h222v-23q-11 -12 -14 -26.5t-2 -48.5v-1178h-253l-433 965v-965h-206v1276z"/>
<glyph glyph-name="O" unicode="O" d="M258.5 43.5q-108.5 80.5 -166 233t-57.5 364.5q0 209 57.5 359t166 229.5t259.5 79.5t259.5 -79.5t166 -229.5t57.5 -359q0 -212 -57.5 -364.5t-166 -233t-259.5 -80.5t-259.5 80.5zM649.5 209.5q55.5 62.5 85 177t29.5 266.5q0 141 -29.5 247.5t-85 165t-131.5 58.5 q-75 0 -131 -58.5t-85.5 -165t-29.5 -247.5q0 -152 29.5 -266.5t85 -177t131.5 -62.5t131.5 62.5z"/>
<glyph glyph-name="P" unicode="P" d="M102 1276h433q146 0 242 -51t142 -137.5t46 -194.5t-45 -193t-139 -134.5t-236 -49.5h-209v-516h-234v1276zM528 711q102 0 151.5 48t49.5 128q0 84 -50.5 135t-148.5 51h-194v-362h192z"/>
<glyph glyph-name="Q" unicode="Q" d="M487.5 -234q-81.5 65 -86.5 211q-115 31 -197.5 122.5t-125.5 231t-43 310.5q0 197 59 348.5t168 235.5t254 84q132 0 239 -75t170.5 -226t63.5 -369q0 -200 -49.5 -339.5t-132 -217.5t-186.5 -105q3 -37 25.5 -57.5t64.5 -19.5l202 8l-6 -207h-164q-174 0 -255.5 65z M684.5 282.5q65.5 110.5 65.5 360.5q0 161 -33.5 264.5t-86.5 150t-112 46.5q-110 0 -178 -105t-68 -346q0 -153 31 -261.5t86 -164t127 -55.5q103 0 168.5 110.5z"/>
<glyph glyph-name="R" unicode="R" d="M96 1276h404q229 0 337.5 -100.5t108.5 -280.5q0 -70 -30.5 -140t-86 -123.5t-127.5 -76.5l299 -555h-258l-264 528h-149v-528h-234v1276zM514 723q99 0 148 46t49 126q0 90 -47.5 134t-149.5 44h-184v-350h184z"/>
<glyph glyph-name="S" unicode="S" d="M57 141l100 174l9 16l20 -12q1 -4 5.5 -17t13.5 -25.5t25 -24.5q124 -92 278 -92q96 0 148.5 45t52.5 135q0 45 -22.5 81.5t-77 73.5t-150.5 80q-178 77 -258 173t-80 223q0 92 51.5 169.5t142 123t203.5 45.5q127 0 219 -42t176 -130l-115 -160l-10 -15l-19 13 q-1 6 -3.5 20t-10 27.5t-22.5 26.5q-86 71 -217 71q-56 0 -96.5 -19.5t-61 -51.5t-20.5 -70q0 -45 23.5 -79.5t80.5 -71t166 -89.5q130 -62 202 -119.5t102 -120.5t30 -147q0 -102 -47 -190.5t-148.5 -143.5t-257.5 -55q-249 0 -432 178z"/>
<glyph glyph-name="T" unicode="T" d="M387 1077h-346v199h940v-199h-360v-1077h-234v1077z"/>
<glyph glyph-name="U" unicode="U" d="M187.5 97.5q-111.5 126.5 -111.5 353.5v825h245v-23q-11 -12 -14 -26.5t-2 -48.5v-729q0 -141 47 -214t160 -73q116 0 163.5 74t47.5 219v821h225v-819q0 -242 -116 -364t-322 -122q-211 0 -322.5 126.5z"/>
<glyph glyph-name="V" unicode="V" d="M20 1276h242l268 -905l254 905h236l-410 -1276h-176z"/>
<glyph glyph-name="W" unicode="W" d="M12 1276h224l73 -842l150 737h147l150 -731l53 836h213l-152 -1276h-180l-168 776l-170 -776h-184z"/>
<glyph glyph-name="X" unicode="X" d="M387 651l-340 625h250l221 -418l215 418h238l-318 -623l359 -653h-258l-234 438l-227 -438h-250z"/>
<glyph glyph-name="Y" unicode="Y" d="M412 504l-394 772h256l263 -516l233 516h248l-365 -774v-502h-241v504z"/>
<glyph glyph-name="Z" unicode="Z" d="M84 139l578 938h-556v199h838v-139l-567 -940h499q33 0 48.5 3.5t27.5 14.5h23v-215h-891v139z"/>
<glyph glyph-name="bracketleft" unicode="[" d="M242 1370h635v-190h-420v-1180h420v-184h-635v1554z"/>
<glyph glyph-name="backslash" unicode="\" d="M104 1280l179 94l639 -1384l-179 -86z"/>
<glyph glyph-name="bracketright" unicode="]" d="M247 -184v184h420v1180h-420v190h635v-1554h-635z"/>
<glyph glyph-name="asciicircum" unicode="^" d="M158 760l311 520h74l313 -520l-168 -80l-180 354l-182 -354z"/>
<glyph glyph-name="underscore" unicode="_" d="M59 -16h906v-191h-906v191z"/>
<glyph glyph-name="grave" unicode="`" d="M305 1348l139 100l164 -338l-88 -51z"/>
<glyph glyph-name="a" unicode="a" d="M791.5 893q113.5 -94 113.5 -311v-582h-219v86q-55 -52 -132.5 -81.5t-166.5 -29.5q-149 0 -227 73.5t-78 199.5q0 102 64.5 174t186 109.5t290.5 37.5h70q-10 125 -61 178.5t-155 53.5q-66 0 -137 -34.5t-131 -96.5l-117 151q90 82 193.5 124t203.5 42q189 0 302.5 -94z M622 214q59 64 71 202h-46q-176 0 -257 -38t-81 -120q0 -56 40.5 -82t111.5 -26q102 0 161 64z"/>
<glyph glyph-name="b" unicode="b" d="M406 1q-66 32 -113 91l-31 -92h-160v1382h246v-23q-11 -12 -14 -26.5t-2 -48.5v-410q44 49 102.5 76t118.5 27q110 0 202 -54.5t146.5 -162.5t54.5 -262q0 -168 -58.5 -288t-153 -180.5t-199.5 -60.5q-73 0 -139 32zM614.5 191q47.5 31 79 100t31.5 176q0 146 -54 235 t-161 89q-102 0 -141 -81.5t-39 -220.5q0 -172 48 -250.5t138 -78.5q51 0 98.5 31z"/>
<glyph glyph-name="c" unicode="c" d="M311 32q-110 65 -171.5 179.5t-61.5 257.5q0 142 61.5 258t172 183t251.5 67q118 0 221 -48t162 -136l-128 -150l-11 -14l-18 15q-1 5 -2 19t-7.5 27.5t-21.5 27.5q-73 68 -195 68q-70 0 -127.5 -40t-91 -113t-33.5 -168q0 -91 31.5 -159t88.5 -105t130 -37 q65 0 127.5 30t116.5 97l133 -154q-77 -87 -173.5 -128.5t-203.5 -41.5q-140 0 -250 65z"/>
<glyph glyph-name="d" unicode="d" d="M262 24.5q-93 55.5 -147 167t-54 271.5q0 156 55.5 273t148.5 179t202 62q56 0 118 -27t103 -69v501h250v-23q-11 -12 -14 -26.5t-2 -48.5l-4 -1169q0 -35 4 -61.5t18 -53.5h-223q-14 26 -16.5 49t-2.5 66q-30 -72 -95 -109t-134 -37q-114 0 -207 55.5zM690 489 q0 138 -40 220t-142 82q-108 0 -161.5 -90t-53.5 -234q0 -107 31.5 -176t79 -100t98.5 -31q188 0 188 329z"/>
<glyph glyph-name="e" unicode="e" d="M307 27q-108 60 -169.5 172.5t-61.5 265.5q0 155 58 271t161 178.5t233 62.5q115 0 207.5 -53.5t146.5 -159t54 -254.5q0 -24 -4 -68l-2 -28h-627q15 -131 82 -197.5t160 -66.5q66 0 133 30.5t110 85.5l127 -127q-145 -172 -362 -172q-138 0 -246 60zM707 582 q0 60 -23.5 111t-67 81.5t-100.5 30.5q-84 0 -139 -60.5t-66 -162.5h396z"/>
<glyph glyph-name="f" unicode="f" d="M285 774h-207v182h207v37q0 128 53 219.5t143 139t199 47.5q184 0 317 -133l-93 -146l-10 -16l-19 13q-6 20 -15 33t-35 30q-32 20 -61.5 28.5t-65.5 8.5q-94 0 -142 -56t-48 -166v-39h293v-182h-293v-774h-223v774z"/>
<glyph glyph-name="g" unicode="g" d="M928 -37q0 -87 -49.5 -159t-151 -115t-250.5 -43q-185 0 -278 62t-93 173q0 57 28.5 108t82.5 85q-88 50 -88 147q0 56 29 98.5t82 78.5q-54 48 -84.5 114t-30.5 139q0 93 47.5 171.5t127.5 124.5t175 46q61 0 116.5 -19.5t101.5 -55.5q51 29 114.5 45.5t129.5 16.5 q21 0 32 -1l24 -174q-47 11 -101 11q-61 0 -103 -13q36 -72 36 -152q0 -92 -47 -171t-127.5 -125t-175.5 -46q-73 0 -142 30q-12 -14 -17 -26t-5 -28q0 -37 69.5 -56.5t237.5 -19.5q310 0 310 -246zM402.5 786q-33.5 -21 -53 -57t-19.5 -78t19.5 -77.5t53 -56.5t72.5 -21 q40 0 73.5 20.5t53 56.5t19.5 78t-19.5 78t-53 57t-73.5 21q-39 0 -72.5 -21zM661.5 -152q55.5 32 55.5 86q0 31 -14 49.5t-49 27.5t-99 9q-136 0 -215 14q-26 -24 -37.5 -47.5t-11.5 -56.5q0 -58 57.5 -86t159.5 -28q98 0 153.5 32z"/>
<glyph glyph-name="h" unicode="h" d="M123 1382h247v-23q-11 -12 -14 -26.5t-2 -48.5v-426q50 55 116.5 87t133.5 32q154 0 239 -95.5t85 -301.5v-580h-232v578q0 106 -36.5 158t-100.5 52q-57 0 -104 -30t-74 -83.5t-27 -121.5v-553h-231v1382z"/>
<glyph glyph-name="i" unicode="i" d="M182 184h230v588h-219v184h448v-772h209v-184h-668v184zM440 1140.5q-33 18.5 -52 49.5t-19 67q0 59 40 97.5t103 38.5q37 0 70.5 -18.5t53.5 -50t20 -67.5t-20 -67t-53.5 -49.5t-70.5 -18.5q-39 0 -72 18.5z"/>
<glyph glyph-name="j" unicode="j" d="M205.5 -323q-81.5 39 -152.5 116l126 164l11 15l18 -14q1 -5 3 -19t9.5 -27.5t23.5 -26.5q63 -53 143 -53q73 0 110.5 49.5t37.5 157.5v731h-332v186h563v-888q0 -149 -50 -245t-135 -140.5t-194 -44.5q-100 0 -181.5 39zM559 1140.5q-33 18.5 -52 49.5t-19 67 q0 59 40 97.5t103 38.5q37 0 70.5 -18.5t53.5 -50t20 -67.5t-20 -67t-53.5 -49.5t-70.5 -18.5q-39 0 -72 18.5z"/>
<glyph glyph-name="k" unicode="k" d="M432 432l-78 -74v-358h-231v1382h247v-23q-11 -12 -14 -26.5t-2 -48.5v-680l367 363q73 -17 117 -17h149l-391 -377l432 -571l-280 -10z"/>
<glyph glyph-name="l" unicode="l" d="M137 178h262v1026h-249v178h481v-1204h260v-178h-754v178z"/>
<glyph glyph-name="m" unicode="m" d="M66 967h196v-60q34 45 77.5 67.5t90.5 22.5q49 0 93 -27t71 -87q37 58 82 86t112 28q106 0 148.5 -70.5t42.5 -219.5v-707h-213v668q0 80 -14 114.5t-47 34.5q-78 0 -78 -188v-629h-211v657q0 92 -16.5 126t-43.5 34q-41 0 -62.5 -40.5t-21.5 -141.5v-635h-206v967z"/>
<glyph glyph-name="n" unicode="n" d="M123 956h231v-98q51 56 121 87.5t152 31.5q136 0 217.5 -96.5t81.5 -300.5v-580h-230v578q0 108 -39.5 159t-117.5 51q-49 0 -91.5 -19.5t-68 -58.5t-25.5 -96v-614h-231v956z"/>
<glyph glyph-name="o" unicode="o" d="M283 32q-104 65 -164 181t-60 264q0 139 61 253.5t165.5 180.5t228.5 66t228.5 -66t165.5 -180.5t61 -253.5q0 -148 -60 -264t-164 -181t-231 -65t-231 65zM632.5 192.5q50.5 40.5 77.5 114t27 170.5q0 98 -27 169t-77.5 109t-118.5 38q-65 0 -114.5 -38t-77 -109.5 t-27.5 -168.5q0 -98 26.5 -171.5t75.5 -113.5t117 -40t118.5 40.5z"/>
<glyph glyph-name="p" unicode="p" d="M111 956h221v-118q44 73 105.5 106t140.5 33q106 0 194.5 -58t141.5 -172t53 -274q0 -163 -54 -276.5t-142 -170.5t-191 -57q-76 0 -137.5 32.5t-100.5 102.5v-446h-229zM634 193q47 35 75 108.5t28 183.5q0 137 -46.5 220t-147.5 83q-105 0 -153 -87.5t-48 -235.5 q0 -155 50 -231t136 -76q59 0 106 35z"/>
<glyph glyph-name="q" unicode="q" d="M686 66q-39 -45 -101 -72t-122 -27q-111 0 -203.5 65.5t-146.5 182.5t-54 264q0 148 52.5 261t145 175t208.5 62q60 0 126.5 -27.5t102.5 -70.5v77h221v-1298h-229v408zM633.5 243q48.5 81 48.5 238q0 159 -51 234.5t-144 75.5q-54 0 -98.5 -36.5t-71 -105.5t-26.5 -162 q0 -95 27.5 -169t74.5 -115t103 -41q89 0 137.5 81z"/>
<glyph glyph-name="r" unicode="r" d="M835.5 950.5q70.5 -26.5 125.5 -78.5l-110 -220l-21 10q-2 7 -4 20q-3 19 -8.5 32.5t-22.5 27.5q-50 40 -123 40t-132 -34.5t-92.5 -98.5t-33.5 -149v-500h-232v956h236v-137q38 74 111.5 116t164.5 42q71 0 141.5 -26.5z"/>
<glyph glyph-name="s" unicode="s" d="M292 5.5q-107 38.5 -196 123.5l96 168l9 16l20 -12q2 -5 5.5 -18t13 -25.5t25.5 -24.5q56 -42 123.5 -61.5t156.5 -19.5q164 0 164 108q0 33 -20 57t-64 44t-121 42q-165 43 -256.5 108.5t-91.5 180.5q0 83 44.5 147.5t128 101t195.5 36.5t204.5 -36.5t170.5 -111.5 l-116 -161l-10 -15l-19 13q-1 5 -3.5 18.5t-11.5 26.5t-25 24q-81 58 -186 58q-61 0 -102 -21t-41 -57q0 -33 22.5 -56.5t68 -42.5t130.5 -45q118 -36 185 -72.5t98 -87.5t31 -128q0 -83 -49.5 -155.5t-135.5 -116.5t-192 -44q-144 0 -251 38.5z"/>
<glyph glyph-name="t" unicode="t" d="M932 86q-75 -56 -155.5 -85.5t-174.5 -29.5q-149 0 -228 88t-79 303q0 55 6 121l17 287h-207l4 186h214l13 224l252 42l4 -23q-2 -3 -10 -14.5t-13 -27t-6 -36.5l-15 -165h294l-4 -186h-294l-22 -272q-5 -70 -5 -112q0 -127 31 -177.5t97 -50.5q62 0 115 24t117 80z"/>
<glyph glyph-name="u" unicode="u" d="M185.5 54.5q-81.5 95.5 -81.5 303.5v598h226v-598q0 -107 36.5 -159t100.5 -52q57 0 104 30t74 84t27 122v573h231v-800q0 -61 3.5 -93t17.5 -63h-224q-13 25 -16.5 49.5t-3.5 61.5q-40 -69 -114 -110.5t-144 -41.5q-155 0 -236.5 95.5z"/>
<glyph glyph-name="v" unicode="v" d="M938 956q-5 -84 -31.5 -167.5t-77.5 -213.5l-227 -575h-188l-363 956h228l239 -701l137 347q40 115 60 195t20 159h203z"/>
<glyph glyph-name="w" unicode="w" d="M16 956h226l96 -675l119 565h141l135 -563q28 183 38.5 342t10.5 268v63h217q-27 -237 -66 -494t-81 -462h-203l-125 532l-118 -532h-209z"/>
<glyph glyph-name="x" unicode="x" d="M381 485l-326 471h258l195 -309l186 309h248l-305 -464l344 -492h-262l-209 324l-197 -324h-262z"/>
<glyph glyph-name="y" unicode="y" d="M930 956q-3 -82 -26 -166.5t-66 -201.5l-238 -656q-58 -159 -141.5 -226.5t-202.5 -67.5q-67 0 -120.5 22.5t-115.5 71.5l75 164l8 17l21 -10q2 -4 6.5 -17t15.5 -24.5t28 -22.5q38 -25 76 -25q50 0 94 50t81 140l-362 952h224l240 -671l124 342q30 93 45.5 163t15.5 138 q0 19 -1 28h219z"/>
<glyph glyph-name="z" unicode="z" d="M88 143l496 619h-457v194h764v-143l-490 -620h436q33 0 48.5 3.5t27.5 14.5h23v-211h-848v143z"/>
<glyph glyph-name="braceleft" unicode="{" d="M469 -292q-97 34 -148 117t-51 228l6 172q0 97 -29 134.5t-89 37.5h-86v183h84q64 0 94.5 39t30.5 124l-5 193q0 182 99.5 275.5t292.5 93.5h166v-185h-201q-66 0 -97.5 -41t-31.5 -123l4 -190q0 -90 -38.5 -161.5t-107.5 -115.5q64 -41 103 -118t39 -174l-4 -144 q0 -104 44 -151t144 -47h143v-181h-114q-151 0 -248 34z"/>
<glyph glyph-name="bar" unicode="|" d="M403 1335h220v-1644h-220v1644z"/>
<glyph glyph-name="braceright" unicode="}" d="M115 -326v181h143q100 0 144 47t44 151l-4 144q0 97 39 174t103 118q-69 44 -107.5 115.5t-38.5 161.5l4 190q0 82 -31.5 123t-97.5 41h-201v185h166q193 0 292.5 -93.5t99.5 -275.5l-5 -193q0 -85 30.5 -124t94.5 -39h84v-183h-86q-60 0 -89 -37.5t-29 -134.5l6 -172 q0 -145 -51 -228t-148 -117t-248 -34h-114z"/>
<glyph glyph-name="asciitilde" unicode="~" d="M605 585q-39 18 -89 52q-44 29 -72.5 43t-64.5 14q-60 0 -99.5 -26.5t-58.5 -89.5l-110 108q39 95 101.5 140.5t158.5 45.5q56 0 100 -19t98 -53q42 -26 68 -38t53 -12q45 0 79.5 25.5t74.5 82.5l96 -127q-46 -77 -108 -120.5t-134 -43.5q-54 0 -93 18z"/>
<glyph glyph-name="uni00A0" unicode=" "/>
<glyph glyph-name="exclamdown" unicode="¡" d="M568.5 1202q37.5 -20 60 -54t22.5 -73q0 -37 -21.5 -71.5t-58.5 -56t-82 -21.5q-42 0 -78 20.5t-57.5 55t-21.5 73.5q0 40 21 74t57.5 53.5t78.5 19.5t79.5 -20zM584 796l53 -772q1 -10 1 -28q0 -88 -39 -128t-105 -40q-68 0 -106.5 41.5t-38.5 130.5l1 24l49 772h185z "/>
<glyph glyph-name="cent" unicode="¢" d="M805 379l133 -154q-75 -85 -168 -126.5t-198 -43.5l-27 -205h-148l30 222q-105 27 -184 96t-122 169.5t-43 219.5q0 142 61.5 258t172 183t251.5 67l29 211h141l-30 -229q77 -21 140 -63t103 -103l-128 -150l-11 -14l-18 15q-1 5 -2 19t-7.5 27.5t-21.5 27.5 q-32 31 -80 50l-80 -602q121 17 207 125zM349.5 380.5q38.5 -72.5 105.5 -105.5l82 597q-64 -7 -115.5 -48.5t-81 -111.5t-29.5 -159q0 -100 38.5 -172.5z"/>
<glyph glyph-name="sterling" unicode="£" d="M57 147q83 33 129 71t66 95.5t20 149.5q0 36 -4.5 82.5t-13.5 85.5h-133v182h92q-8 44 -8 86q0 111 50 200t136.5 139t192.5 50q89 0 162.5 -34.5t140.5 -106.5l-137 -170q-3 4 -16 28q-18 32 -33.5 51.5t-43.5 33.5t-73 14q-42 0 -78 -23t-58 -69t-22 -111q0 -33 8 -88 h287v-182h-244q7 -40 11 -86t4 -80q0 -67 -13.5 -128.5t-46.5 -100.5q27 10 55 10q30 0 57.5 -9t71.5 -28q39 -18 68 -27.5t59 -9.5q31 0 64.5 19t89.5 65l86 -176q-70 -57 -128 -83t-128 -26q-37 0 -74 11t-92 33q-55 21 -90 31.5t-70 10.5q-59 0 -109.5 -19.5 t-152.5 -72.5z"/>
<glyph glyph-name="currency" unicode="¤" d="M106 430l113 115q-45 79 -45 164q0 90 45 165l-113 113l134 121l110 -111q37 19 80 30t84 11q84 0 160 -39l110 109l134 -121l-113 -110q47 -73 47 -168q0 -93 -47 -168l113 -111l-134 -121l-108 109q-69 -39 -162 -39q-94 0 -166 41l-108 -111zM626 587q38 46 38 120 t-38 120.5t-114 46.5t-114 -46.5t-38 -120.5t38 -120t114 -46t114 46z"/>
<glyph glyph-name="yen" unicode="¥" d="M639 592h252v-121h-252v-106h252v-119h-252v-246h-223v246h-264v119h264v106h-264v121h259l-376 684h254l239 -483l222 483h239z"/>
<glyph glyph-name="brokenbar" unicode="¦" d="M403 1335h220v-778h-220v778zM403 446h220v-755h-220v755z"/>
<glyph glyph-name="section" unicode="§" d="M278 -65q-97 52 -169 151l141 166q14 0 20 -6.5t13 -26.5q8 -29 39 -60.5t73.5 -53t85.5 -21.5q69 0 108.5 35t39.5 84q0 35 -17 60.5t-57.5 48t-114.5 44.5q-158 50 -228.5 121.5t-70.5 171.5q0 39 20 82t55 79t79 54q-55 32 -90 91t-35 118q0 82 46 154t127 115.5 t181 43.5q111 0 201.5 -59t148.5 -160l-169 -147q-18 4 -23 13.5t-10 41.5q-10 51 -52.5 88t-97.5 37q-34 0 -61.5 -16t-43.5 -43t-16 -58q0 -38 23 -66.5t71 -53t132 -54.5q99 -35 173 -107t74 -173q0 -62 -37.5 -119t-93.5 -84q54 -41 83.5 -95t29.5 -114 q0 -93 -47 -169.5t-131 -120.5t-191 -44q-112 0 -209 52zM631.5 546.5q7.5 24.5 7.5 51.5q0 102 -162 158l-65 22q-18 -8 -28.5 -36t-10.5 -56q0 -48 41 -88t121 -66q5 -2 22.5 -6t52.5 -16q14 12 21.5 36.5z"/>
<glyph glyph-name="dieresis" unicode="¨" d="M255 1140q-33 18 -52 48t-19 65t19 66t52 49t71 18q36 0 69 -17t53.5 -47.5t20.5 -68.5q0 -35 -19.5 -65t-52.5 -48t-71 -18t-71 18zM631.5 1139.5q-32.5 17.5 -51.5 47.5t-19 66t19 66.5t51.5 48.5t70.5 18q35 0 68 -17t53.5 -47.5t20.5 -68.5q0 -35 -19 -65t-52 -48 t-71 -18t-70.5 17.5z"/>
<glyph glyph-name="copyright" unicode="©" d="M256 107.5q-114 70.5 -180 190.5t-66 261t68.5 261t184 190.5t251.5 70.5q134 0 250 -70.5t185 -190.5t69 -261q0 -212 -150 -366q-72 -76 -164.5 -116t-197.5 -40q-136 0 -250 70.5zM696 211.5q83 55.5 132 148.5t49 201t-48.5 201.5t-131.5 149t-181 55.5 q-99 0 -181.5 -54.5t-130.5 -148t-48 -205.5q0 -110 48 -202.5t130.5 -146.5t181.5 -54q97 0 180 55.5zM361.5 284.5q-68.5 44.5 -105.5 119t-37 161.5t39 159t104.5 113.5t141.5 41.5q122 0 198 -62t101 -164l-160 -57q-9 3 -11.5 10t-4.5 22q0 14 -4 25q-11 33 -39 52.5 t-64 19.5q-48 0 -82.5 -36t-34.5 -114q0 -81 31 -129.5t92 -48.5q45 0 75 25.5t50 77.5l144 -92q-44 -78 -117 -123t-160 -45q-88 0 -156.5 44.5z"/>
<glyph glyph-name="ordfeminine" unicode="ª" d="M304 544q-56 30 -89 82.5t-33 118.5q0 118 97.5 174t255.5 56q47 0 86 -4q0 76 -26 108.5t-79 32.5q-48 0 -91.5 -20t-90.5 -62l-113 113q68 70 142 101.5t165 31.5q142 0 219.5 -70.5t77.5 -204.5v-466h-202v92q-29 -59 -76.5 -86t-120.5 -27q-66 0 -122 30zM583 714 q44 38 44 128q-38 3 -67 3q-92 0 -130.5 -24.5t-38.5 -72.5q0 -28 24 -50t64 -22q60 0 104 38zM141 453h748v-160h-748v160z"/>
<glyph glyph-name="guillemotleft" unicode="«" d="M121 465v67l336 324l102 -111l-244 -249l260 -293l-112 -107zM463 465v67l334 324l112 -117l-254 -243l269 -291l-119 -109z"/>
<glyph glyph-name="logicalnot" unicode="¬" d="M653 555h-487v195h702v-435h-215v240z"/>
<glyph glyph-name="uni00AD" unicode="­" d="M131 750h768v-187h-768v187z"/>
<glyph glyph-name="registered" unicode="®" d="M256 107.5q-114 70.5 -180 190.5t-66 261t68.5 261t184 190.5t251.5 70.5q134 0 250 -70.5t185 -190.5t69 -261q0 -212 -150 -366q-72 -76 -164.5 -116t-197.5 -40q-136 0 -250 70.5zM696 211.5q83 55.5 132 148.5t49 201t-48.5 201.5t-131.5 149t-181 55.5 q-99 0 -181.5 -54.5t-130.5 -148t-48 -205.5q0 -110 48 -202.5t130.5 -146.5t181.5 -54q97 0 180 55.5zM502 504h-56v-223h-141v575h191q256 0 256 -174q0 -50 -28 -91.5t-77 -64.5l119 -231l-150 -23zM502 618q92 0 92 60q0 53 -98 53h-50v-113h56z"/>
<glyph glyph-name="macron" unicode="¯" d="M221 1315h574v-131h-574v131z"/>
<glyph glyph-name="degree" unicode="°" d="M372 821q-69 39 -109 105.5t-40 146.5t41.5 147t111 105.5t148.5 38.5q82 0 151 -40t109.5 -107t40.5 -144t-40.5 -144t-109.5 -107t-151 -40q-83 0 -152 39zM602.5 983.5q30.5 35.5 30.5 91.5t-30.5 92.5t-78.5 36.5q-47 0 -76.5 -36.5t-29.5 -92.5t29.5 -91.5 t76.5 -35.5q48 0 78.5 35.5z"/>
<glyph glyph-name="plusminus" unicode="±" d="M412 666h-334v190h334v324h213v-324h321v-190h-321v-353h-213v353zM80 225h868v-192h-868v192z"/>
<glyph glyph-name="uni00B2" unicode="²" d="M862 731v-194h-620v149q37 33 139 121q89 75 135 119t75.5 90t29.5 92q0 38 -26 59t-71 21q-72 0 -126 -46q-23 -19 -29.5 -34.5t-5.5 -34.5l-15 -18l-14 12l-125 98q60 95 141 144t199 49q75 0 136 -29t95.5 -82t34.5 -123q0 -68 -32 -124t-84 -104t-154 -128l-69 -55 h287q33 0 48.5 3.5t27.5 14.5h23z"/>
<glyph glyph-name="uni00B3" unicode="³" d="M330 553q-82 39 -154 121l126 145l11 14l18 -15q1 -5 0.5 -21.5t4 -30t19.5 -26.5q30 -25 69.5 -38.5t79.5 -13.5q59 0 99 27t40 76q0 41 -29.5 64.5t-89.5 23.5q-45 0 -96 -5v142q39 -4 98 -4q39 0 65.5 25t26.5 69q0 45 -30.5 66.5t-83.5 21.5q-46 0 -94 -22t-80 -60 l-125 98q58 74 135 111t178 37q84 0 150 -31t102.5 -81t36.5 -105q0 -59 -28 -106t-85 -77q69 -27 107.5 -72.5t38.5 -109.5q0 -74 -43.5 -134t-117.5 -94t-161 -34q-106 0 -188 39z"/>
<glyph glyph-name="acute" unicode="´" d="M434 1110l164 338l139 -100l-215 -289z"/>
<glyph glyph-name="uni00B5" unicode="µ" d="M57 418v518h219v-549q0 -124 37.5 -174t100.5 -57q60 12 100.5 67t40.5 160v553h215v-680q0 -92 27 -92q12 0 26.5 15.5t22.5 33.5l53 102l105 -194q-98 -139 -218 -139q-53 0 -96 22.5t-69 63.5q-44 -41 -103 -63.5t-119 -22.5q-45 0 -89 12t-79 35v-344h-211 q0 122 37 733z"/>
<glyph glyph-name="paragraph" unicode="¶" d="M442 649q-96 14 -173 66.5t-121 132.5t-44 174q0 96 50.5 173t164.5 123t297 46h355v-1505h-203v1323h-121v-1323h-205v790z"/>
<glyph glyph-name="periodcentered" unicode="·" d="M408 556q-36 19 -57 52.5t-21 73.5q0 39 22 72.5t58.5 53t76.5 19.5q41 0 78.5 -20.5t60.5 -54.5t23 -70q0 -39 -21.5 -72.5t-58.5 -53t-82 -19.5q-43 0 -79 19z"/>
<glyph glyph-name="cedilla" unicode="¸" d="M295 -305l76 133q58 -61 105.5 -85t101.5 -24q46 0 70 14.5t24 39.5q0 23 -22 34t-75 11h-100l25 182h164l-9 -63q77 -8 118.5 -46.5t41.5 -99.5q0 -51 -29.5 -99.5t-89 -80t-143.5 -31.5q-143 0 -258 115z"/>
<glyph glyph-name="uni00B9" unicode="¹" d="M494 1110l-189 -68l-59 119l317 168h115v-790h-184v571z"/>
<glyph glyph-name="ordmasculine" unicode="º" d="M336 590q-75 47 -118.5 132t-43.5 193q0 113 46.5 203t124 140.5t165.5 50.5q92 0 166 -44.5t117 -130t43 -204.5q0 -118 -46 -206t-122.5 -134.5t-165.5 -46.5q-91 0 -166 47zM566.5 751.5q28.5 22.5 45.5 66.5t17 104q0 62 -17 108.5t-45 71t-61 24.5 q-34 0 -62.5 -24.5t-45.5 -70t-17 -107.5q0 -60 16.5 -104.5t44.5 -67.5t62 -23t62.5 22.5zM137 483h752v-176h-752v176z"/>
<glyph glyph-name="guillemotright" unicode="»" d="M137 205l269 291l-254 243l112 117l334 -324v-67l-342 -369zM486 203l260 293l-244 249l102 111l336 -324v-67l-342 -369z"/>
<glyph glyph-name="onequarter" unicode="¼" d="M180 1198l-133 -35l-47 94l240 129h125v-638h-185v450zM123 -8l635 1382l131 -84l-637 -1378zM735 8h-278v92l325 414h129v-379h97v-127h-97v-151h-176v151zM737 131v127l-100 -127h100z"/>
<glyph glyph-name="onehalf" unicode="½" d="M180 1198l-133 -35l-47 94l240 129h125v-638h-185v450zM82 -8l635 1382l131 -84l-637 -1378zM514 -45q64 76 217 213l21 18q37 32 57 55.5t20 47.5q0 34 -25.5 55t-62.5 21q-64 0 -88 -72q-1 -5 -5 -19t-13 -26l-135 88q52 83 119.5 124.5t162.5 41.5q62 0 114 -29 t82 -76.5t30 -101.5q0 -46 -15.5 -78.5t-54 -67.5t-117.5 -92q-31 -22 -78 -63h224q5 1 20 10q18 14 35 14v-168h-508v105z"/>
<glyph glyph-name="threequarters" unicode="¾" d="M121.5 787.5q-62.5 31.5 -121.5 97.5l117 129q10 -9 15.5 -18.5t10 -20l7.5 -17.5q11 -21 41 -40t69 -19q43 0 70.5 16t27.5 48q0 33 -23 48t-75 15q-16 0 -78 -6v151q20 -8 34.5 -11t39.5 -3q38 0 58 14.5t20 34.5q0 25 -21 44.5t-55 19.5q-35 0 -69.5 -21t-71.5 -67 l-94 102q102 125 241 125q65 0 119.5 -26.5t86.5 -71t32 -97.5q0 -33 -21 -66t-53 -48q43 -23 71.5 -60t28.5 -77q0 -60 -37 -107t-99 -73.5t-134 -26.5q-74 0 -136.5 31.5zM184 -8l635 1382l131 -84l-637 -1378zM737 8h-278v92l325 414h129v-379h97v-127h-97v-151h-176v151 zM739 131v127l-100 -127h100z"/>
<glyph glyph-name="questiondown" unicode="¿" d="M551.5 1159.5q32.5 -18.5 51 -51t18.5 -70.5q0 -37 -18.5 -68.5t-51 -50t-70.5 -18.5q-37 0 -68.5 18.5t-50 50t-18.5 68.5q0 38 18.5 70.5t50 51t68.5 18.5q38 0 70.5 -18.5zM588 659q0 -62 -20.5 -113.5t-50 -90t-78.5 -90.5q-43 -45 -68.5 -77.5t-42.5 -72.5t-17 -86 q0 -79 47.5 -125.5t139.5 -46.5q125 0 213 96q21 24 27 39t4 33l14 19l14 -11l137 -123q-73 -110 -182 -172.5t-235 -62.5q-114 0 -200.5 49t-133.5 129.5t-47 171.5q0 70 20 122.5t49 88t78 82.5q44 42 69.5 72.5t42.5 72.5t17 96v113h203v-113z"/>
<glyph glyph-name="Agrave" unicode="À" d="M675 330h-326l-93 -330h-236l426 1276h134l426 -1276h-240zM631 489l-117 424l-120 -424h237zM303 1468l96 177l313 -232l-41 -74z"/>
<glyph glyph-name="Aacute" unicode="Á" d="M675 330h-326l-93 -330h-236l426 1276h134l426 -1276h-240zM631 489l-117 424l-120 -424h237zM315 1413l314 232l96 -177l-369 -129z"/>
<glyph glyph-name="Acircumflex" unicode="Â" d="M675 330h-326l-93 -330h-236l426 1276h134l426 -1276h-240zM631 489l-117 424l-120 -424h237zM152 1417l329 221h64l323 -217l-77 -92l-277 135l-289 -135z"/>
<glyph glyph-name="Atilde" unicode="Ã" d="M675 330h-326l-93 -330h-236l426 1276h134l426 -1276h-240zM631 489l-117 424l-120 -424h237zM863 1579q-39 -78 -90 -121t-111 -43q-44 0 -75.5 17.5t-73.5 52.5q-32 29 -56 43t-53 14q-44 0 -71 -22.5t-50 -78.5l-127 52q32 92 94 139t146 47q48 0 83 -18.5t77 -53.5 q32 -26 53 -38.5t45 -12.5q25 0 44 20t42 66z"/>
<glyph glyph-name="Adieresis" unicode="Ä" d="M675 330h-326l-93 -330h-236l426 1276h134l426 -1276h-240zM631 489l-117 424l-120 -424h237zM254.5 1416.5q-32.5 17.5 -51.5 48t-19 65.5t19 66t51.5 49t70.5 18q41 0 74 -19t51.5 -49.5t18.5 -64.5q0 -35 -19.5 -65.5t-53 -48t-71.5 -17.5t-70.5 17.5zM631 1416.5 q-32 17.5 -51 47.5t-19 66t19 66.5t51.5 48.5t70.5 18q41 0 73.5 -19t50 -50t17.5 -64q0 -35 -19 -65.5t-51.5 -48t-70.5 -17.5q-39 0 -71 17.5z"/>
<glyph glyph-name="Aring" unicode="Å" d="M675 330h-326l-93 -330h-236l425 1273q-63 21 -103.5 74t-40.5 119q0 55 28.5 101.5t77 74t105.5 27.5q58 0 107 -27.5t78.5 -74t29.5 -101.5q0 -66 -41 -119t-105 -74l425 -1273h-240zM467.5 1523q-18.5 -23 -18.5 -55t18.5 -53.5t46.5 -21.5t47 21.5t19 53.5t-19 55 t-47 23t-46.5 -23zM631 489l-117 424l-120 -424h237z"/>
<glyph glyph-name="AE" unicode="Æ" d="M393 1276h627v-195h-322v-317h271v-201h-271v-366h318v-197h-531v326h-174l-90 -326h-221zM487 514v453h-4l-121 -453h125z"/>
<glyph glyph-name="Ccedilla" unicode="Ç" d="M809 326l174 -113q-120 -203 -325 -242l-5 -34q77 -8 118.5 -46.5t41.5 -99.5q0 -51 -29.5 -99.5t-89 -80t-143.5 -31.5q-143 0 -258 115l76 133q58 -61 105.5 -85t101.5 -24q46 0 70 14.5t24 39.5q0 23 -22 34t-75 11h-100l21 150q-127 17 -225 96t-154 222.5t-56 344.5 q0 237 76.5 389t195 220.5t251.5 68.5q145 0 251 -77t164 -214l-166 -81l-16 -8l-10 21q3 9 3 19q0 21 -24 57q-69 98 -196 98q-148 0 -219.5 -128t-71.5 -355q0 -139 35.5 -251.5t100 -177.5t145.5 -65q130 0 231 179z"/>
<glyph glyph-name="Egrave" unicode="È" d="M115 1276h831v-197h-608v-315h504v-201h-504v-366h604v-197h-827v1276zM342 1468l96 177l313 -232l-41 -74z"/>
<glyph glyph-name="Eacute" unicode="É" d="M115 1276h831v-197h-608v-315h504v-201h-504v-366h604v-197h-827v1276zM354 1413l314 232l96 -177l-369 -129z"/>
<glyph glyph-name="Ecircumflex" unicode="Ê" d="M115 1276h831v-197h-608v-315h504v-201h-504v-366h604v-197h-827v1276zM191 1417l329 221h64l323 -217l-77 -92l-277 135l-289 -135z"/>
<glyph glyph-name="Edieresis" unicode="Ë" d="M115 1276h831v-197h-608v-315h504v-201h-504v-366h604v-197h-827v1276zM293.5 1416.5q-32.5 17.5 -51.5 48t-19 65.5t19 66t51.5 49t70.5 18q41 0 74 -19t51.5 -49.5t18.5 -64.5q0 -35 -19.5 -65.5t-53 -48t-71.5 -17.5t-70.5 17.5zM670 1416.5q-32 17.5 -51 47.5t-19 66 t19 66.5t51.5 48.5t70.5 18q41 0 73.5 -19t50 -50t17.5 -64q0 -35 -19 -65.5t-51.5 -48t-70.5 -17.5q-39 0 -71 17.5z"/>
<glyph glyph-name="Igrave" unicode="Ì" d="M150 190h247v895h-235v191h712v-191h-247v-897h258v-188h-735v190zM301 1468l96 177l313 -232l-41 -74z"/>
<glyph glyph-name="Iacute" unicode="Í" d="M150 190h247v895h-235v191h712v-191h-247v-897h258v-188h-735v190zM313 1413l314 232l96 -177l-369 -129z"/>
<glyph glyph-name="Icircumflex" unicode="Î" d="M150 190h247v895h-235v191h712v-191h-247v-897h258v-188h-735v190zM150 1417l329 221h64l323 -217l-77 -92l-277 135l-289 -135z"/>
<glyph glyph-name="Idieresis" unicode="Ï" d="M150 190h247v895h-235v191h712v-191h-247v-897h258v-188h-735v190zM252.5 1416.5q-32.5 17.5 -51.5 48t-19 65.5t19 66t51.5 49t70.5 18q41 0 74 -19t51.5 -49.5t18.5 -64.5q0 -35 -19.5 -65.5t-53 -48t-71.5 -17.5t-70.5 17.5zM629 1416.5q-32 17.5 -51 47.5t-19 66 t19 66.5t51.5 48.5t70.5 18q41 0 73.5 -19t50 -50t17.5 -64q0 -35 -19 -65.5t-51.5 -48t-70.5 -17.5q-39 0 -71 17.5z"/>
<glyph glyph-name="Eth" unicode="Ð" d="M90 580h-80v188h80v508h330q163 0 259.5 -43.5t164.5 -134.5q131 -178 131 -469q0 -302 -140.5 -465.5t-439.5 -163.5h-305v580zM391 180q179 0 266.5 113t87.5 330q0 462 -333 462h-99v-317h193v-188h-193v-400h78z"/>
<glyph glyph-name="Ntilde" unicode="Ñ" d="M66 1276h280l406 -914v914h222v-23q-11 -12 -14 -26.5t-2 -48.5v-1178h-253l-433 965v-965h-206v1276zM861 1579q-39 -78 -90 -121t-111 -43q-44 0 -75.5 17.5t-73.5 52.5q-32 29 -56 43t-53 14q-44 0 -71 -22.5t-50 -78.5l-127 52q32 92 94 139t146 47q48 0 83 -18.5 t77 -53.5q32 -26 53 -38.5t45 -12.5q25 0 44 20t42 66z"/>
<glyph glyph-name="Ograve" unicode="Ò" d="M258.5 43.5q-108.5 80.5 -166 233t-57.5 364.5q0 209 57.5 359t166 229.5t259.5 79.5t259.5 -79.5t166 -229.5t57.5 -359q0 -212 -57.5 -364.5t-166 -233t-259.5 -80.5t-259.5 80.5zM649.5 209.5q55.5 62.5 85 177t29.5 266.5q0 141 -29.5 247.5t-85 165t-131.5 58.5 q-75 0 -131 -58.5t-85.5 -165t-29.5 -247.5q0 -152 29.5 -266.5t85 -177t131.5 -62.5t131.5 62.5zM305 1468l96 177l313 -232l-41 -74z"/>
<glyph glyph-name="Oacute" unicode="Ó" d="M258.5 43.5q-108.5 80.5 -166 233t-57.5 364.5q0 209 57.5 359t166 229.5t259.5 79.5t259.5 -79.5t166 -229.5t57.5 -359q0 -212 -57.5 -364.5t-166 -233t-259.5 -80.5t-259.5 80.5zM649.5 209.5q55.5 62.5 85 177t29.5 266.5q0 141 -29.5 247.5t-85 165t-131.5 58.5 q-75 0 -131 -58.5t-85.5 -165t-29.5 -247.5q0 -152 29.5 -266.5t85 -177t131.5 -62.5t131.5 62.5zM317 1413l314 232l96 -177l-369 -129z"/>
<glyph glyph-name="Ocircumflex" unicode="Ô" d="M258.5 43.5q-108.5 80.5 -166 233t-57.5 364.5q0 209 57.5 359t166 229.5t259.5 79.5t259.5 -79.5t166 -229.5t57.5 -359q0 -212 -57.5 -364.5t-166 -233t-259.5 -80.5t-259.5 80.5zM649.5 209.5q55.5 62.5 85 177t29.5 266.5q0 141 -29.5 247.5t-85 165t-131.5 58.5 q-75 0 -131 -58.5t-85.5 -165t-29.5 -247.5q0 -152 29.5 -266.5t85 -177t131.5 -62.5t131.5 62.5zM154 1417l329 221h64l323 -217l-77 -92l-277 135l-289 -135z"/>
<glyph glyph-name="Otilde" unicode="Õ" d="M258.5 43.5q-108.5 80.5 -166 233t-57.5 364.5q0 209 57.5 359t166 229.5t259.5 79.5t259.5 -79.5t166 -229.5t57.5 -359q0 -212 -57.5 -364.5t-166 -233t-259.5 -80.5t-259.5 80.5zM649.5 209.5q55.5 62.5 85 177t29.5 266.5q0 141 -29.5 247.5t-85 165t-131.5 58.5 q-75 0 -131 -58.5t-85.5 -165t-29.5 -247.5q0 -152 29.5 -266.5t85 -177t131.5 -62.5t131.5 62.5zM865 1579q-39 -78 -90 -121t-111 -43q-44 0 -75.5 17.5t-73.5 52.5q-32 29 -56 43t-53 14q-44 0 -71 -22.5t-50 -78.5l-127 52q32 92 94 139t146 47q48 0 83 -18.5t77 -53.5 q32 -26 53 -38.5t45 -12.5q25 0 44 20t42 66z"/>
<glyph glyph-name="Odieresis" unicode="Ö" d="M258.5 43.5q-108.5 80.5 -166 233t-57.5 364.5q0 209 57.5 359t166 229.5t259.5 79.5t259.5 -79.5t166 -229.5t57.5 -359q0 -212 -57.5 -364.5t-166 -233t-259.5 -80.5t-259.5 80.5zM649.5 209.5q55.5 62.5 85 177t29.5 266.5q0 141 -29.5 247.5t-85 165t-131.5 58.5 q-75 0 -131 -58.5t-85.5 -165t-29.5 -247.5q0 -152 29.5 -266.5t85 -177t131.5 -62.5t131.5 62.5zM256.5 1416.5q-32.5 17.5 -51.5 48t-19 65.5t19 66t51.5 49t70.5 18q41 0 74 -19t51.5 -49.5t18.5 -64.5q0 -35 -19.5 -65.5t-53 -48t-71.5 -17.5t-70.5 17.5zM633 1416.5 q-32 17.5 -51 47.5t-19 66t19 66.5t51.5 48.5t70.5 18q41 0 73.5 -19t50 -50t17.5 -64q0 -35 -19 -65.5t-51.5 -48t-70.5 -17.5q-39 0 -71 17.5z"/>
<glyph glyph-name="multiply" unicode="×" d="M520 541l-235 -242l-144 143l238 246l-238 252l150 145l233 -245l234 243l153 -139l-243 -254l237 -252l-147 -149z"/>
<glyph glyph-name="Oslash" unicode="Ø" d="M963 941q38 -131 38 -300q0 -212 -57.5 -364.5t-166 -233t-259.5 -80.5q-147 0 -256 78l-82 -156l-114 70l99 185q-63 88 -96.5 215t-33.5 286q0 209 57.5 359t166 229.5t259.5 79.5q134 0 235 -63l81 151l114 -58l-95 -180q72 -87 110 -218zM300 394l355 666 q-59 64 -137 64q-75 0 -131 -58.5t-85.5 -165t-29.5 -247.5q0 -145 28 -259zM649.5 209.5q55.5 62.5 85 177t29.5 266.5q0 159 -36 270l-362 -686q62 -90 152 -90q76 0 131.5 62.5z"/>
<glyph glyph-name="Ugrave" unicode="Ù" d="M187.5 97.5q-111.5 126.5 -111.5 353.5v825h245v-23q-11 -12 -14 -26.5t-2 -48.5v-729q0 -141 47 -214t160 -73q116 0 163.5 74t47.5 219v821h225v-819q0 -242 -116 -364t-322 -122q-211 0 -322.5 126.5zM301 1468l96 177l313 -232l-41 -74z"/>
<glyph glyph-name="Uacute" unicode="Ú" d="M187.5 97.5q-111.5 126.5 -111.5 353.5v825h245v-23q-11 -12 -14 -26.5t-2 -48.5v-729q0 -141 47 -214t160 -73q116 0 163.5 74t47.5 219v821h225v-819q0 -242 -116 -364t-322 -122q-211 0 -322.5 126.5zM313 1413l314 232l96 -177l-369 -129z"/>
<glyph glyph-name="Ucircumflex" unicode="Û" d="M187.5 97.5q-111.5 126.5 -111.5 353.5v825h245v-23q-11 -12 -14 -26.5t-2 -48.5v-729q0 -141 47 -214t160 -73q116 0 163.5 74t47.5 219v821h225v-819q0 -242 -116 -364t-322 -122q-211 0 -322.5 126.5zM150 1417l329 221h64l323 -217l-77 -92l-277 135l-289 -135z"/>
<glyph glyph-name="Udieresis" unicode="Ü" d="M187.5 97.5q-111.5 126.5 -111.5 353.5v825h245v-23q-11 -12 -14 -26.5t-2 -48.5v-729q0 -141 47 -214t160 -73q116 0 163.5 74t47.5 219v821h225v-819q0 -242 -116 -364t-322 -122q-211 0 -322.5 126.5zM252.5 1416.5q-32.5 17.5 -51.5 48t-19 65.5t19 66t51.5 49 t70.5 18q41 0 74 -19t51.5 -49.5t18.5 -64.5q0 -35 -19.5 -65.5t-53 -48t-71.5 -17.5t-70.5 17.5zM629 1416.5q-32 17.5 -51 47.5t-19 66t19 66.5t51.5 48.5t70.5 18q41 0 73.5 -19t50 -50t17.5 -64q0 -35 -19 -65.5t-51.5 -48t-70.5 -17.5q-39 0 -71 17.5z"/>
<glyph glyph-name="Yacute" unicode="Ý" d="M412 504l-394 772h256l263 -516l233 516h248l-365 -774v-502h-241v504zM313 1413l314 232l96 -177l-369 -129z"/>
<glyph glyph-name="Thorn" unicode="Þ" d="M102 1276h250q4 -4 4 -10q0 -4 -7.5 -20t-10.5 -42v-147h197q146 0 242 -51t142 -137.5t46 -194.5t-45 -193t-139 -134.5t-236 -49.5h-209v-297h-234v1276zM528 492q102 0 151.5 48t49.5 128q0 50 -22 92.5t-67 68t-110 25.5h-192l-2 -362h192z"/>
<glyph glyph-name="germandbls" unicode="ß" d="M454 -15.5q-52 15.5 -112 48.5l115 180q27 -25 53.5 -37t56.5 -12q40 0 73 26t52 74.5t19 112.5q0 72 -26.5 128.5t-78.5 89t-127 32.5h-102v182h115q77 0 124.5 49t47.5 139t-47.5 145.5t-133.5 55.5q-184 0 -184 -278v-920h-221v895q0 244 108.5 365.5t296.5 121.5 q119 0 203.5 -48t128 -126t43.5 -166q0 -94 -50 -177.5t-144 -125.5q133 -41 199.5 -137.5t66.5 -241.5q0 -114 -41.5 -202.5t-122 -138.5t-193.5 -50q-67 0 -119 15.5z"/>
<glyph glyph-name="agrave" unicode="à" d="M791.5 893q113.5 -94 113.5 -311v-582h-219v86q-55 -52 -132.5 -81.5t-166.5 -29.5q-149 0 -227 73.5t-78 199.5q0 102 64.5 174t186 109.5t290.5 37.5h70q-10 125 -61 178.5t-155 53.5q-66 0 -137 -34.5t-131 -96.5l-117 151q90 82 193.5 124t203.5 42q189 0 302.5 -94z M622 214q59 64 71 202h-46q-176 0 -257 -38t-81 -120q0 -56 40.5 -82t111.5 -26q102 0 161 64zM267 1348l139 100l164 -338l-88 -51z"/>
<glyph glyph-name="aacute" unicode="á" d="M791.5 893q113.5 -94 113.5 -311v-582h-219v86q-55 -52 -132.5 -81.5t-166.5 -29.5q-149 0 -227 73.5t-78 199.5q0 102 64.5 174t186 109.5t290.5 37.5h70q-10 125 -61 178.5t-155 53.5q-66 0 -137 -34.5t-131 -96.5l-117 151q90 82 193.5 124t203.5 42q189 0 302.5 -94z M622 214q59 64 71 202h-46q-176 0 -257 -38t-81 -120q0 -56 40.5 -82t111.5 -26q102 0 161 64zM353 1110l164 338l139 -100l-215 -289z"/>
<glyph glyph-name="acircumflex" unicode="â" d="M791.5 893q113.5 -94 113.5 -311v-582h-219v86q-55 -52 -132.5 -81.5t-166.5 -29.5q-149 0 -227 73.5t-78 199.5q0 102 64.5 174t186 109.5t290.5 37.5h70q-10 125 -61 178.5t-155 53.5q-66 0 -137 -34.5t-131 -96.5l-117 151q90 82 193.5 124t203.5 42q189 0 302.5 -94z M622 214q59 64 71 202h-46q-176 0 -257 -38t-81 -120q0 -56 40.5 -82t111.5 -26q102 0 161 64zM144 1130l317 297h62l317 -297l-88 -79l-260 231l-260 -231z"/>
<glyph glyph-name="atilde" unicode="ã" d="M791.5 893q113.5 -94 113.5 -311v-582h-219v86q-55 -52 -132.5 -81.5t-166.5 -29.5q-149 0 -227 73.5t-78 199.5q0 102 64.5 174t186 109.5t290.5 37.5h70q-10 125 -61 178.5t-155 53.5q-66 0 -137 -34.5t-131 -96.5l-117 151q90 82 193.5 124t203.5 42q189 0 302.5 -94z M622 214q59 64 71 202h-46q-176 0 -257 -38t-81 -120q0 -56 40.5 -82t111.5 -26q102 0 161 64zM841 1305q-39 -78 -90 -121t-111 -43q-44 0 -75.5 17.5t-73.5 52.5q-32 29 -56 43t-53 14q-44 0 -71 -22.5t-50 -78.5l-127 52q32 92 94 139t146 47q48 0 83 -18.5t77 -53.5 q32 -26 53 -38.5t45 -12.5q25 0 44 20t42 66z"/>
<glyph glyph-name="adieresis" unicode="ä" d="M791.5 893q113.5 -94 113.5 -311v-582h-219v86q-55 -52 -132.5 -81.5t-166.5 -29.5q-149 0 -227 73.5t-78 199.5q0 102 64.5 174t186 109.5t290.5 37.5h70q-10 125 -61 178.5t-155 53.5q-66 0 -137 -34.5t-131 -96.5l-117 151q90 82 193.5 124t203.5 42q189 0 302.5 -94z M622 214q59 64 71 202h-46q-176 0 -257 -38t-81 -120q0 -56 40.5 -82t111.5 -26q102 0 161 64zM233 1140q-33 18 -52 48t-19 65t19 66t52 49t71 18q36 0 69 -17t53.5 -47.5t20.5 -68.5q0 -35 -19.5 -65t-52.5 -48t-71 -18t-71 18zM609.5 1139.5q-32.5 17.5 -51.5 47.5 t-19 66t19 66.5t51.5 48.5t70.5 18q35 0 68 -17t53.5 -47.5t20.5 -68.5q0 -35 -19 -65t-52 -48t-71 -18t-70.5 17.5z"/>
<glyph glyph-name="aring" unicode="å" d="M791.5 893q113.5 -94 113.5 -311v-582h-219v86q-55 -52 -132.5 -81.5t-166.5 -29.5q-149 0 -227 73.5t-78 199.5q0 102 64.5 174t186 109.5t290.5 37.5h70q-10 125 -61 178.5t-155 53.5q-66 0 -137 -34.5t-131 -96.5l-117 151q90 82 193.5 124t203.5 42q189 0 302.5 -94z M622 214q59 64 71 202h-46q-176 0 -257 -38t-81 -120q0 -56 40.5 -82t111.5 -26q102 0 161 64zM384.5 1076.5q-48.5 27.5 -77 74.5t-28.5 102t28.5 101.5t77 74t105.5 27.5q58 0 107 -27.5t78.5 -74t29.5 -101.5t-29.5 -102t-78.5 -74.5t-107 -27.5q-57 0 -105.5 27.5z M539 1201.5q19 21.5 19 53.5t-19 55t-47 23t-47 -23t-19 -55t19 -53.5t47 -21.5t47 21.5z"/>
<glyph glyph-name="ae" unicode="æ" d="M150 8.5q-67 33.5 -106.5 99t-39.5 156.5q0 97 51 172t144.5 118.5t218.5 47.5q0 98 -31.5 153.5t-87.5 55.5q-83 0 -152 -113l-112 144q51 66 121 99.5t153 33.5q60 0 123 -34.5t98 -82.5q34 51 86 84t107 33q146 0 217.5 -111t71.5 -309v-100l-406 -17v-73 q0 -100 44 -161t118 -61q82 0 143 105l113 -139q-54 -65 -122 -99.5t-144 -34.5q-69 0 -130 33t-104 92q-35 -56 -97 -90.5t-128 -34.5q-82 0 -149 33.5zM848 614q0 63 -16.5 107.5t-43.5 67t-59 22.5q-37 0 -65 -27.5t-43 -74t-15 -101.5zM382.5 175.5q25.5 25.5 33.5 82.5 t8 172q-116 -6 -168.5 -50.5t-52.5 -115.5q0 -56 28.5 -85t71.5 -29q54 0 79.5 25.5z"/>
<glyph glyph-name="ccedilla" unicode="ç" d="M688.5 194q62.5 30 116.5 97l133 -154q-115 -130 -279 -161l-6 -39q77 -8 118.5 -46.5t41.5 -99.5q0 -51 -29.5 -99.5t-89 -80t-143.5 -31.5q-143 0 -258 115l76 133q58 -61 105.5 -85t101.5 -24q46 0 70 14.5t24 39.5q0 23 -22 34t-75 11h-100l21 153q-123 15 -217.5 83 t-146.5 175.5t-52 239.5q0 142 61.5 258t172 183t251.5 67q118 0 221 -48t162 -136l-128 -150l-11 -14l-18 15q-1 5 -2 19t-7.5 27.5t-21.5 27.5q-73 68 -195 68q-70 0 -127.5 -40t-91 -113t-33.5 -168q0 -91 31.5 -159t88.5 -105t130 -37q65 0 127.5 30z"/>
<glyph glyph-name="egrave" unicode="è" d="M307 27q-108 60 -169.5 172.5t-61.5 265.5q0 155 58 271t161 178.5t233 62.5q115 0 207.5 -53.5t146.5 -159t54 -254.5q0 -24 -4 -68l-2 -28h-627q15 -131 82 -197.5t160 -66.5q66 0 133 30.5t110 85.5l127 -127q-145 -172 -362 -172q-138 0 -246 60zM707 582 q0 60 -23.5 111t-67 81.5t-100.5 30.5q-84 0 -139 -60.5t-66 -162.5h396zM303 1348l139 100l164 -338l-88 -51z"/>
<glyph glyph-name="eacute" unicode="é" d="M307 27q-108 60 -169.5 172.5t-61.5 265.5q0 155 58 271t161 178.5t233 62.5q115 0 207.5 -53.5t146.5 -159t54 -254.5q0 -24 -4 -68l-2 -28h-627q15 -131 82 -197.5t160 -66.5q66 0 133 30.5t110 85.5l127 -127q-145 -172 -362 -172q-138 0 -246 60zM707 582 q0 60 -23.5 111t-67 81.5t-100.5 30.5q-84 0 -139 -60.5t-66 -162.5h396zM389 1110l164 338l139 -100l-215 -289z"/>
<glyph glyph-name="ecircumflex" unicode="ê" d="M307 27q-108 60 -169.5 172.5t-61.5 265.5q0 155 58 271t161 178.5t233 62.5q115 0 207.5 -53.5t146.5 -159t54 -254.5q0 -24 -4 -68l-2 -28h-627q15 -131 82 -197.5t160 -66.5q66 0 133 30.5t110 85.5l127 -127q-145 -172 -362 -172q-138 0 -246 60zM707 582 q0 60 -23.5 111t-67 81.5t-100.5 30.5q-84 0 -139 -60.5t-66 -162.5h396zM180 1130l317 297h62l317 -297l-88 -79l-260 231l-260 -231z"/>
<glyph glyph-name="edieresis" unicode="ë" d="M307 27q-108 60 -169.5 172.5t-61.5 265.5q0 155 58 271t161 178.5t233 62.5q115 0 207.5 -53.5t146.5 -159t54 -254.5q0 -24 -4 -68l-2 -28h-627q15 -131 82 -197.5t160 -66.5q66 0 133 30.5t110 85.5l127 -127q-145 -172 -362 -172q-138 0 -246 60zM707 582 q0 60 -23.5 111t-67 81.5t-100.5 30.5q-84 0 -139 -60.5t-66 -162.5h396zM269 1140q-33 18 -52 48t-19 65t19 66t52 49t71 18q36 0 69 -17t53.5 -47.5t20.5 -68.5q0 -35 -19.5 -65t-52.5 -48t-71 -18t-71 18zM645.5 1139.5q-32.5 17.5 -51.5 47.5t-19 66t19 66.5t51.5 48.5 t70.5 18q35 0 68 -17t53.5 -47.5t20.5 -68.5q0 -35 -19 -65t-52 -48t-71 -18t-70.5 17.5z"/>
<glyph glyph-name="igrave" unicode="ì" d="M182 184h230v588h-219v184h448v-772h209v-184h-668v184zM254 1348l166 114l164 -336l-115 -67z"/>
<glyph glyph-name="iacute" unicode="í" d="M182 184h230v588h-219v184h448v-772h209v-184h-668v184zM418 1110l164 338l139 -100l-215 -289z"/>
<glyph glyph-name="icircumflex" unicode="î" d="M182 184h230v588h-219v184h448v-772h209v-184h-668v184zM475 1241l-221 -190l-82 79l276 297h66l276 -299l-116 -77z"/>
<glyph glyph-name="idieresis" unicode="ï" d="M182 184h230v588h-219v184h448v-772h209v-184h-668v184zM239 1140q-33 18 -52 48t-19 65t19 66t52 49t71 18q36 0 69 -17t53.5 -47.5t20.5 -68.5q0 -35 -19.5 -65t-52.5 -48t-71 -18t-71 18zM615.5 1139.5q-32.5 17.5 -51.5 47.5t-19 66t19 66.5t51.5 48.5t70.5 18 q35 0 68 -17t53.5 -47.5t20.5 -68.5q0 -35 -19 -65t-52 -48t-71 -18t-70.5 17.5z"/>
<glyph glyph-name="eth" unicode="ð" d="M294 31q-102 64 -160 176t-58 250q0 136 53.5 252.5t149.5 186t217 69.5q50 0 105.5 -20.5t92.5 -55.5q-27 56 -54 102t-71 96l-254 -71l-61 162l170 43q-84 63 -197 125l246 55q94 -61 160 -119l235 61l58 -153l-164 -43q201 -265 201 -633q0 -164 -50 -287t-149 -191.5 t-242 -68.5q-126 0 -228 64zM632 195q45 35 71 106t26 174t-28 170t-74.5 98t-102.5 31q-60 0 -107.5 -35t-74.5 -102.5t-27 -161.5q0 -91 26 -162.5t74.5 -112t112.5 -40.5q59 0 104 35z"/>
<glyph glyph-name="ntilde" unicode="ñ" d="M123 956h231v-98q51 56 121 87.5t152 31.5q136 0 217.5 -96.5t81.5 -300.5v-580h-230v578q0 108 -39.5 159t-117.5 51q-49 0 -91.5 -19.5t-68 -58.5t-25.5 -96v-614h-231v956zM881 1305q-39 -78 -90 -121t-111 -43q-44 0 -75.5 17.5t-73.5 52.5q-32 29 -56 43t-53 14 q-44 0 -71 -22.5t-50 -78.5l-127 52q32 92 94 139t146 47q48 0 83 -18.5t77 -53.5q32 -26 53 -38.5t45 -12.5q25 0 44 20t42 66z"/>
<glyph glyph-name="ograve" unicode="ò" d="M283 32q-104 65 -164 181t-60 264q0 139 61 253.5t165.5 180.5t228.5 66t228.5 -66t165.5 -180.5t61 -253.5q0 -148 -60 -264t-164 -181t-231 -65t-231 65zM632.5 192.5q50.5 40.5 77.5 114t27 170.5q0 98 -27 169t-77.5 109t-118.5 38q-65 0 -114.5 -38t-77 -109.5 t-27.5 -168.5q0 -98 26.5 -171.5t75.5 -113.5t117 -40t118.5 40.5zM289 1348l139 100l164 -338l-88 -51z"/>
<glyph glyph-name="oacute" unicode="ó" d="M283 32q-104 65 -164 181t-60 264q0 139 61 253.5t165.5 180.5t228.5 66t228.5 -66t165.5 -180.5t61 -253.5q0 -148 -60 -264t-164 -181t-231 -65t-231 65zM632.5 192.5q50.5 40.5 77.5 114t27 170.5q0 98 -27 169t-77.5 109t-118.5 38q-65 0 -114.5 -38t-77 -109.5 t-27.5 -168.5q0 -98 26.5 -171.5t75.5 -113.5t117 -40t118.5 40.5zM375 1110l164 338l139 -100l-215 -289z"/>
<glyph glyph-name="ocircumflex" unicode="ô" d="M283 32q-104 65 -164 181t-60 264q0 139 61 253.5t165.5 180.5t228.5 66t228.5 -66t165.5 -180.5t61 -253.5q0 -148 -60 -264t-164 -181t-231 -65t-231 65zM632.5 192.5q50.5 40.5 77.5 114t27 170.5q0 98 -27 169t-77.5 109t-118.5 38q-65 0 -114.5 -38t-77 -109.5 t-27.5 -168.5q0 -98 26.5 -171.5t75.5 -113.5t117 -40t118.5 40.5zM166 1130l317 297h62l317 -297l-88 -79l-260 231l-260 -231z"/>
<glyph glyph-name="otilde" unicode="õ" d="M283 32q-104 65 -164 181t-60 264q0 139 61 253.5t165.5 180.5t228.5 66t228.5 -66t165.5 -180.5t61 -253.5q0 -148 -60 -264t-164 -181t-231 -65t-231 65zM632.5 192.5q50.5 40.5 77.5 114t27 170.5q0 98 -27 169t-77.5 109t-118.5 38q-65 0 -114.5 -38t-77 -109.5 t-27.5 -168.5q0 -98 26.5 -171.5t75.5 -113.5t117 -40t118.5 40.5zM863 1305q-39 -78 -90 -121t-111 -43q-44 0 -75.5 17.5t-73.5 52.5q-32 29 -56 43t-53 14q-44 0 -71 -22.5t-50 -78.5l-127 52q32 92 94 139t146 47q48 0 83 -18.5t77 -53.5q32 -26 53 -38.5t45 -12.5 q25 0 44 20t42 66z"/>
<glyph glyph-name="odieresis" unicode="ö" d="M283 32q-104 65 -164 181t-60 264q0 139 61 253.5t165.5 180.5t228.5 66t228.5 -66t165.5 -180.5t61 -253.5q0 -148 -60 -264t-164 -181t-231 -65t-231 65zM632.5 192.5q50.5 40.5 77.5 114t27 170.5q0 98 -27 169t-77.5 109t-118.5 38q-65 0 -114.5 -38t-77 -109.5 t-27.5 -168.5q0 -98 26.5 -171.5t75.5 -113.5t117 -40t118.5 40.5zM255 1140q-33 18 -52 48t-19 65t19 66t52 49t71 18q36 0 69 -17t53.5 -47.5t20.5 -68.5q0 -35 -19.5 -65t-52.5 -48t-71 -18t-71 18zM631.5 1139.5q-32.5 17.5 -51.5 47.5t-19 66t19 66.5t51.5 48.5 t70.5 18q35 0 68 -17t53.5 -47.5t20.5 -68.5q0 -35 -19 -65t-52 -48t-71 -18t-70.5 17.5z"/>
<glyph glyph-name="divide" unicode="÷" d="M457 841.5q-30 16.5 -48 44.5t-18 60q0 33 18.5 62t48.5 46t64 17q39 0 68.5 -20t46 -49t16.5 -56q0 -32 -17.5 -60t-48 -44.5t-65.5 -16.5t-65 16.5zM127 762h772v-203h-772v203zM457 262q-31 16 -49.5 44t-18.5 61q0 35 19 63t49.5 43.5t64.5 15.5q40 0 70 -19.5 t45.5 -48t15.5 -54.5q0 -51 -38.5 -86t-92.5 -35q-34 0 -65 16z"/>
<glyph glyph-name="oslash" unicode="ø" d="M115 -47l82 151q-66 68 -102 161.5t-36 203.5q0 142 62.5 258.5t168 183t230.5 66.5q68 0 137 -21l64 115l178 -96l-70 -127q65 -66 100.5 -161t35.5 -214q0 -155 -57.5 -269.5t-159.5 -175.5t-230 -61q-80 0 -156 29l-71 -135zM565 786q-22 7 -51 7q-65 0 -114.5 -38 t-77 -109.5t-27.5 -168.5q0 -89 20 -153zM678 236.5q59 82.5 59 232.5q0 94 -24 164l-258 -471q27 -8 63 -8q101 0 160 82.5z"/>
<glyph glyph-name="ugrave" unicode="ù" d="M185.5 54.5q-81.5 95.5 -81.5 303.5v598h226v-598q0 -107 36.5 -159t100.5 -52q57 0 104 30t74 84t27 122v573h231v-800q0 -61 3.5 -93t17.5 -63h-224q-13 25 -16.5 49.5t-3.5 61.5q-40 -69 -114 -110.5t-144 -41.5q-155 0 -236.5 95.5zM287 1348l139 100l164 -338 l-88 -51z"/>
<glyph glyph-name="uacute" unicode="ú" d="M185.5 54.5q-81.5 95.5 -81.5 303.5v598h226v-598q0 -107 36.5 -159t100.5 -52q57 0 104 30t74 84t27 122v573h231v-800q0 -61 3.5 -93t17.5 -63h-224q-13 25 -16.5 49.5t-3.5 61.5q-40 -69 -114 -110.5t-144 -41.5q-155 0 -236.5 95.5zM373 1110l164 338l139 -100 l-215 -289z"/>
<glyph glyph-name="ucircumflex" unicode="û" d="M185.5 54.5q-81.5 95.5 -81.5 303.5v598h226v-598q0 -107 36.5 -159t100.5 -52q57 0 104 30t74 84t27 122v573h231v-800q0 -61 3.5 -93t17.5 -63h-224q-13 25 -16.5 49.5t-3.5 61.5q-40 -69 -114 -110.5t-144 -41.5q-155 0 -236.5 95.5zM164 1130l317 297h62l317 -297 l-88 -79l-260 231l-260 -231z"/>
<glyph glyph-name="udieresis" unicode="ü" d="M185.5 54.5q-81.5 95.5 -81.5 303.5v598h226v-598q0 -107 36.5 -159t100.5 -52q57 0 104 30t74 84t27 122v573h231v-800q0 -61 3.5 -93t17.5 -63h-224q-13 25 -16.5 49.5t-3.5 61.5q-40 -69 -114 -110.5t-144 -41.5q-155 0 -236.5 95.5zM253 1140q-33 18 -52 48t-19 65 t19 66t52 49t71 18q36 0 69 -17t53.5 -47.5t20.5 -68.5q0 -35 -19.5 -65t-52.5 -48t-71 -18t-71 18zM629.5 1139.5q-32.5 17.5 -51.5 47.5t-19 66t19 66.5t51.5 48.5t70.5 18q35 0 68 -17t53.5 -47.5t20.5 -68.5q0 -35 -19 -65t-52 -48t-71 -18t-70.5 17.5z"/>
<glyph glyph-name="yacute" unicode="ý" d="M930 956q-3 -82 -26 -166.5t-66 -201.5l-238 -656q-58 -159 -141.5 -226.5t-202.5 -67.5q-67 0 -120.5 22.5t-115.5 71.5l75 164l8 17l21 -10q2 -4 6.5 -17t15.5 -24.5t28 -22.5q38 -25 76 -25q50 0 94 50t81 140l-362 952h224l240 -671l124 342q30 93 45.5 163t15.5 138 q0 19 -1 28h219zM393 1110l164 338l139 -100l-215 -289z"/>
<glyph glyph-name="thorn" unicode="þ" d="M102 1382h258q0 -11 -3 -19.5t-10 -18.5q-7 -13 -11 -23t-4 -27v-426q45 50 103.5 79.5t117.5 29.5q110 0 202 -54.5t146.5 -162.5t54.5 -262q0 -169 -55.5 -288.5t-147 -180t-198.5 -60.5q-56 0 -118 25t-103 69v-405h-232v1724zM614.5 191q47.5 31 79 100t31.5 176 q0 146 -54 235t-161 89q-102 0 -141 -81.5t-39 -220.5q0 -172 48 -250.5t138 -78.5q51 0 98.5 31z"/>
<glyph glyph-name="dotlessi" unicode="ı" d="M182 184h230v588h-219v184h448v-772h209v-184h-668v184z"/>
<glyph glyph-name="uni0237" unicode="ȷ" d="M205.5 -323q-81.5 39 -152.5 116l126 164l11 15l18 -14q1 -5 3 -19t9.5 -27.5t23.5 -26.5q63 -53 143 -53q73 0 110.5 49.5t37.5 157.5v731h-332v186h563v-888q0 -149 -50 -245t-135 -140.5t-194 -44.5q-100 0 -181.5 39z"/>
<glyph glyph-name="circumflex" unicode="ˆ" d="M516 1241l-221 -190l-82 79l276 297h66l276 -299l-116 -77z"/>
<glyph glyph-name="uni02CB" unicode="ˋ" d="M356 1348l166 114l164 -336l-115 -67z"/>
<glyph glyph-name="gravecomb" horiz-adv-x="0" unicode="̀" d="M-719 1348l139 100l164 -338l-88 -51z"/>
<glyph glyph-name="acutecomb" horiz-adv-x="0" unicode="́" d="M-590 1110l164 338l139 -100l-215 -289z"/>
<glyph glyph-name="uni0302" horiz-adv-x="0" unicode="̂" d="M-866 1130l317 297h62l317 -297l-88 -79l-260 231l-260 -231z"/>
<glyph glyph-name="tildecomb" horiz-adv-x="0" unicode="̃" d="M-145 1305q-39 -78 -90 -121t-111 -43q-44 0 -75.5 17.5t-73.5 52.5q-32 29 -56 43t-53 14q-44 0 -71 -22.5t-50 -78.5l-127 52q32 92 94 139t146 47q48 0 83 -18.5t77 -53.5q32 -26 53 -38.5t45 -12.5q25 0 44 20t42 66z"/>
<glyph glyph-name="uni0307" horiz-adv-x="0" unicode="̇" d="M-576 1140.5q-33 18.5 -52 49.5t-19 67q0 59 40 97.5t103 38.5q37 0 70.5 -18.5t53.5 -50t20 -67.5t-20 -67t-53.5 -49.5t-70.5 -18.5q-39 0 -72 18.5z"/>
<glyph glyph-name="uni0308" horiz-adv-x="0" unicode="̈" d="M-769 1140q-33 18 -52 48t-19 65t19 66t52 49t71 18q36 0 69 -17t53.5 -47.5t20.5 -68.5q0 -35 -19.5 -65t-52.5 -48t-71 -18t-71 18zM-392.5 1139.5q-32.5 17.5 -51.5 47.5t-19 66t19 66.5t51.5 48.5t70.5 18q35 0 68 -17t53.5 -47.5t20.5 -68.5q0 -35 -19 -65t-52 -48 t-71 -18t-70.5 17.5z"/>
<glyph glyph-name="uni030A" horiz-adv-x="0" unicode="̊" d="M-619.5 1076.5q-48.5 27.5 -77 74.5t-28.5 102t28.5 101.5t77 74t105.5 27.5q58 0 107 -27.5t78.5 -74t29.5 -101.5t-29.5 -102t-78.5 -74.5t-107 -27.5q-57 0 -105.5 27.5zM-465 1201.5q19 21.5 19 53.5t-19 55t-47 23t-47 -23t-19 -55t19 -53.5t47 -21.5t47 21.5z"/>
<glyph glyph-name="uni0308.case" horiz-adv-x="0" d="M-771.5 1416.5q-32.5 17.5 -51.5 48t-19 65.5t19 66t51.5 49t70.5 18q41 0 74 -19t51.5 -49.5t18.5 -64.5q0 -35 -19.5 -65.5t-53 -48t-71.5 -17.5t-70.5 17.5zM-395 1416.5q-32 17.5 -51 47.5t-19 66t19 66.5t51.5 48.5t70.5 18q41 0 73.5 -19t50 -50t17.5 -64 q0 -35 -19 -65.5t-51.5 -48t-70.5 -17.5q-39 0 -71 17.5z"/>
<glyph glyph-name="gravecomb.case" horiz-adv-x="0" d="M-696 1468l96 177l313 -232l-41 -74z"/>
<glyph glyph-name="acutecomb.case" horiz-adv-x="0" d="M-670 1413l314 232l96 -177l-369 -129z"/>
<glyph glyph-name="uni0302.case" horiz-adv-x="0" d="M-870 1417l329 221h64l323 -217l-77 -92l-277 135l-289 -135z"/>
<glyph glyph-name="tildecomb.case" horiz-adv-x="0" d="M-155 1579q-39 -78 -90 -121t-111 -43q-44 0 -75.5 17.5t-73.5 52.5q-32 29 -56 43t-53 14q-44 0 -71 -22.5t-50 -78.5l-127 52q32 92 94 139t146 47q48 0 83 -18.5t77 -53.5q32 -26 53 -38.5t45 -12.5q25 0 44 20t42 66z"/>
</font>
</defs>
</svg>
