<?xml version="1.0" encoding="iso-8859-1"?>
<!-- Generator: Adobe Illustrator 16.0.0, SVG Export Plug-In . SVG Version: 6.00 Build 0)  -->
<!DOCTYPE svg PUBLIC "-//W3C//DTD SVG 1.1//EN" "http://www.w3.org/Graphics/SVG/1.1/DTD/svg11.dtd">
<svg version="1.1" id="Layer_1" xmlns="http://www.w3.org/2000/svg" xmlns:xlink="http://www.w3.org/1999/xlink" x="0px" y="0px"
	 width="51px" height="51px" viewBox="0 0 51 51" style="enable-background:new 0 0 51 51;" xml:space="preserve">
<title>icon-bitcoin</title>
<desc>Created with Sketch.</desc>
<g id="Page-1">
	<g id="icon-bitcoin">
		<path id="coin" style="fill:#FF9900;" d="M25.5,51C39.6,51,51,39.6,51,25.5C51,11.4,39.5,0,25.5,0S0,11.4,0,25.5
			C0,39.6,11.4,51,25.5,51z"/>
		<path id="BitPay-Bitcoin_Symbol" style="fill:#FFFFFF;" d="M33.5,19.1c-0.6-3-3.3-3.8-6.5-3.9L26.5,11L24,11.2l0.5,4.2
			c-0.7,0.1-1.3,0.1-2,0.2L22,11.4l-2.5,0.2l0.5,4.3c-0.5,0-1.1,0.1-1.6,0.2l0,0L15,16.4l0.3,2.8c0,0,1.8-0.2,1.8-0.1
			c1-0.1,1.4,0.5,1.5,1l0.5,4.9h0.3h-0.3l0.8,6.8c0,0.3-0.2,0.9-0.8,0.9l-1.8,0.2L17.2,36l3.2-0.3c0.6,0,1.2-0.101,1.8-0.101
			l0.5,4.301l2.5-0.2l-0.5-4.3c0.7,0,1.399-0.101,2-0.101l0.5,4.2l2.5-0.2L29.2,35c4.2-0.6,7-2,6.899-6.1
			C36,25.6,34.4,24.2,31.9,23.8C33.2,22.8,34,21.4,33.5,19.1L33.5,19.1z M31,28.7c0.4,3.2-5,3.3-6.7,3.5l-0.6-5.7
			C25.5,26.3,30.7,25.3,31,28.7L31,28.7z M23.5,23.8L23,18.6c1.4-0.1,5.8-1,6.1,2.1C29.3,23.6,24.9,23.7,23.5,23.8z"/>
	</g>
</g>
</svg>
