<?xml version="1.0" encoding="utf-8"?>
<!-- Generator: Adobe Illustrator 16.0.0, SVG Export Plug-In . SVG Version: 6.00 Build 0)  -->
<!DOCTYPE svg PUBLIC "-//W3C//DTD SVG 1.1//EN" "http://www.w3.org/Graphics/SVG/1.1/DTD/svg11.dtd">
<svg version="1.1" id="Layer_1" xmlns="http://www.w3.org/2000/svg" xmlns:xlink="http://www.w3.org/1999/xlink" x="0px" y="0px"
	 width="12px" height="16px" viewBox="0 0 12 16" enable-background="new 0 0 12 16" xml:space="preserve">
<title>Bitcoin_Symbol</title>
<desc>Created with Sketch.</desc>
<g>
	<g id="XMLID_1070_">
		<path id="XMLID_1071_" fill="#555555" d="M5.365,8.986h2.606c0.97,0,1.757-0.789,1.757-1.757c0-0.969-0.787-1.757-1.757-1.757
			H7.14L5.365,3.931h2.606c1.821,0,3.298,1.478,3.298,3.299c0,1.382-0.85,2.564-2.055,3.055l2.055,1.785H8.916L5.365,8.986z"/>
	</g>
	<g id="XMLID_1068_">
		<path id="XMLID_1069_" fill="#555555" d="M6.637,7.014H4.029c-0.967,0-1.756,0.788-1.756,1.756c0,0.97,0.789,1.757,1.756,1.757
			H4.86l1.776,1.542H4.029c-1.821,0-3.298-1.476-3.298-3.299c0-1.382,0.851-2.564,2.056-3.056L0.731,3.931h2.353L6.637,7.014z"/>
	</g>
</g>
</svg>
