<?xml version="1.0" encoding="iso-8859-1"?>
<!-- Generator: Adobe Illustrator 16.0.0, SVG Export Plug-In . SVG Version: 6.00 Build 0)  -->
<!DOCTYPE svg PUBLIC "-//W3C//DTD SVG 1.1//EN" "http://www.w3.org/Graphics/SVG/1.1/DTD/svg11.dtd">
<svg version="1.1" id="Layer_1" xmlns="http://www.w3.org/2000/svg" xmlns:xlink="http://www.w3.org/1999/xlink" x="0px" y="0px"
	 width="224.719px" height="224.719px" viewBox="0 0 224.719 224.719" style="enable-background:new 0 0 224.719 224.719;"
	 xml:space="preserve">
<g>
	<g id="XMLID_1070_">
		<path id="XMLID_1071_" style="fill:#0C1E3D;" d="M101.139,129.732h45.951c17.073,0,30.962-13.893,30.962-30.963
			c0-17.073-13.889-30.965-30.962-30.965h-14.637l-31.314-27.181h45.951c32.11,0,58.144,26.036,58.144,58.146
			c0,24.358-14.985,45.22-36.238,53.871l36.232,31.453h-41.462L101.139,129.732z"/>
	</g>
	<g id="XMLID_1068_">
		<path id="XMLID_1069_" style="fill:#0C1E3D;" d="M123.577,94.99H77.625c-17.067,0-30.959,13.888-30.959,30.958
			c0,17.073,13.892,30.966,30.959,30.966h14.64l31.312,27.18H77.625c-32.11,0-58.14-26.031-58.14-58.146
			c0-24.358,14.986-45.22,36.236-53.871L19.487,40.624h41.464L123.577,94.99z"/>
	</g>
</g>
</svg>
