<svg xmlns="http://www.w3.org/2000/svg" viewBox="0 0 32 32"><defs><style>.cls-1{fill:#2972ff;}.cls-2{fill:#8997a5;}.cls-3{fill:#80bcff;}.cls-4{fill:none;}</style></defs><title>create-wallet</title><g id="Layer_2" data-name="Layer 2"><g id="specctr"><path id="_Path_" data-name="&lt;Path&gt;" class="cls-1" d="M27.6,8H4.4A2.41,2.41,0,0,1,2,6a2.39,2.39,0,0,0,0,.4V25.58A2.41,2.41,0,0,0,4.4,28H27.6a2.41,2.41,0,0,0,2.4-2.4V10.42A2.41,2.41,0,0,0,27.6,8Z"/><g id="_Group_" data-name="&lt;Group&gt;"><g id="_Group_2" data-name="&lt;Group&gt;"><path id="_Path_2" data-name="&lt;Path&gt;" class="cls-2" d="M2,6.21v0Z"/><path id="_Path_3" data-name="&lt;Path&gt;" class="cls-2" d="M2,6.31v0Z"/><path id="_Path_4" data-name="&lt;Path&gt;" class="cls-3" d="M4.4,8H26V6.42A2.41,2.41,0,0,0,23.6,4H4.4A2.41,2.41,0,0,0,2,6,2.41,2.41,0,0,0,4.4,8Z"/><path id="_Path_5" data-name="&lt;Path&gt;" class="cls-2" d="M2,6.11v0Z"/><path id="_Path_6" data-name="&lt;Path&gt;" class="cls-3" d="M25,18a5,5,0,0,0,5,5V13A5,5,0,0,0,25,18Z"/><path id="_Compound_Path_" data-name="&lt;Compound Path&gt;" class="cls-3" d="M18,23a9,9,0,1,0-1.5,5A9,9,0,0,0,18,23Zm-8,5H8V24H4V22H8V18h2v4h4v2H10Z"/><polygon id="_Path_7" data-name="&lt;Path&gt;" class="cls-1" points="14 24 14 22 10 22 10 18 8 18 8 22 4 22 4 24 8 24 8 28 10 28 10 24 14 24"/></g><rect id="_Rectangle_" data-name="&lt;Rectangle&gt;" class="cls-4" width="32" height="32"/></g></g></g></svg>