<svg xmlns="http://www.w3.org/2000/svg" viewBox="0 0 32 32"><defs><style>.cls-1{fill:#8997a5;}.cls-2{fill:#b7bcc6;}.cls-3{fill:#5a6d81;}.cls-4{fill:none;}</style></defs><title>import-wallet</title><g id="Layer_2" data-name="Layer 2"><g id="specctr"><g id="_Group_" data-name="&lt;Group&gt;"><g id="_Group_2" data-name="&lt;Group&gt;"><path id="_Path_" data-name="&lt;Path&gt;" class="cls-1" d="M2,6.11v0Z"/><path id="_Path_2" data-name="&lt;Path&gt;" class="cls-2" d="M4.4,8H26V6.42A2.41,2.41,0,0,0,23.6,4H4.4A2.41,2.41,0,0,0,2,6,2.41,2.41,0,0,0,4.4,8Z"/><path id="_Path_3" data-name="&lt;Path&gt;" class="cls-1" d="M2,6.21v0Z"/><path id="_Path_4" data-name="&lt;Path&gt;" class="cls-1" d="M2,6.31v0Z"/><path id="_Path_5" data-name="&lt;Path&gt;" class="cls-3" d="M27.6,8H4.4A2.41,2.41,0,0,1,2,6H2v.29s0,.07,0,.11V25.58A2.41,2.41,0,0,0,4.4,28H27.6a2.41,2.41,0,0,0,2.4-2.4V23a5,5,0,0,1,0-10V10.42A2.41,2.41,0,0,0,27.6,8Z"/><path id="_Path_6" data-name="&lt;Path&gt;" class="cls-2" d="M25,18a5,5,0,0,0,5,5V13A5,5,0,0,0,25,18Z"/></g><g id="_Group_3" data-name="&lt;Group&gt;"><circle id="_Path_7" data-name="&lt;Path&gt;" class="cls-2" cx="9" cy="23" r="9"/></g><polygon id="_Path_8" data-name="&lt;Path&gt;" class="cls-3" points="12.79 21.97 10 24.77 10 18 8 18 8 24.77 5.21 21.97 3.79 23.39 9 28.59 14.21 23.39 12.79 21.97"/><rect id="_Rectangle_" data-name="&lt;Rectangle&gt;" class="cls-4" width="32" height="32"/></g></g></g></svg>