<svg xmlns="http://www.w3.org/2000/svg" viewBox="0 0 32 32"><defs><style>.cls-1{fill:#96ebd1;}.cls-2{fill:#c0f3e3;}.cls-3{fill:#2ed8a3;}.cls-4{fill:none;}</style></defs><title>join-shared-wallet</title><g id="Layer_2" data-name="Layer 2"><g id="specctr"><g id="_Group_" data-name="&lt;Group&gt;"><rect id="_Path_" data-name="&lt;Path&gt;" class="cls-1" x="2" y="4.02" width="24" height="19.96" rx="2.4" ry="2.4"/><g id="_Group_2" data-name="&lt;Group&gt;"><g id="_Group_3" data-name="&lt;Group&gt;"><polygon id="_Path_2" data-name="&lt;Path&gt;" class="cls-2" points="30 15 30 13 19.65 13 19 13 18 13 18 14 18 22.87 19.65 22.87 30 22.87 30 20.87 20 20.87 20 15 30 15"/><circle id="_Path_3" data-name="&lt;Path&gt;" class="cls-2" cx="23" cy="18" r="1.48"/></g><rect id="_Rectangle_" data-name="&lt;Rectangle&gt;" class="cls-2" x="26.69" y="13" width="3.31" height="2"/><rect id="_Rectangle_2" data-name="&lt;Rectangle&gt;" class="cls-2" x="26.69" y="20.87" width="3.31" height="2"/></g><path id="_Path_4" data-name="&lt;Path&gt;" class="cls-3" d="M27.6,8H4.4A2.41,2.41,0,0,1,2,6a2.39,2.39,0,0,0,0,.4V25.58A2.41,2.41,0,0,0,4.4,28H27.6a2.41,2.41,0,0,0,2.4-2.4V10.42A2.41,2.41,0,0,0,27.6,8Z"/><path id="_Path_5" data-name="&lt;Path&gt;" class="cls-1" d="M30,13a5,5,0,1,0,0,10Z"/><circle id="_Path_6" data-name="&lt;Path&gt;" class="cls-1" cx="9" cy="23" r="9"/><path id="_Path_7" data-name="&lt;Path&gt;" class="cls-3" d="M11.25,23.29a4,4,0,1,0-4.49,0A9,9,0,0,0,1.21,27.5a9,9,0,0,0,15.59,0A9,9,0,0,0,11.25,23.29Z"/><rect id="_Rectangle_3" data-name="&lt;Rectangle&gt;" class="cls-4" width="32" height="32"/></g></g></g></svg>