<?xml version="1.0" encoding="iso-8859-1"?>
<!-- Generator: Adobe Illustrator 16.0.0, SVG Export Plug-In . SVG Version: 6.00 Build 0)  -->
<!DOCTYPE svg PUBLIC "-//W3C//DTD SVG 1.1//EN" "http://www.w3.org/Graphics/SVG/1.1/DTD/svg11.dtd">
<svg version="1.1" id="Layer_1" xmlns="http://www.w3.org/2000/svg" xmlns:xlink="http://www.w3.org/1999/xlink" x="0px" y="0px"
	 width="565.08px" height="114.285px" viewBox="0 0 565.08 114.285" style="enable-background:new 0 0 565.08 114.285;"
	 xml:space="preserve">
<g id="XMLID_1051_">
	<g id="XMLID_1070_">
		<path id="XMLID_1071_" style="fill:#FFFFFF;" d="M68.585,69.395h32.081c11.919,0,21.614-9.698,21.614-21.616
			s-9.695-21.616-21.614-21.616h-10.22L68.585,7.188h32.081c22.416,0,40.59,18.175,40.59,40.591
			c0,17.006-10.462,31.569-25.298,37.607l25.294,21.959h-28.944L68.585,69.395z"/>
	</g>
	<g id="XMLID_1068_">
		<path id="XMLID_1069_" style="fill:#FFFFFF;" d="M84.249,45.141H52.169c-11.915,0-21.613,9.695-21.613,21.612
			c0,11.92,9.698,21.618,21.613,21.618H62.39l21.859,18.975h-32.08c-22.416,0-40.588-18.173-40.588-40.59
			c0-17.006,10.461-31.57,25.296-37.609L11.583,7.188h28.946L84.249,45.141z"/>
	</g>
	<path id="XMLID_1066_" style="fill:#FFFFFF;" d="M314.294,76.65v-0.174c0-18.001,13.852-32.117,32.556-32.117
		c12.617,0,20.736,5.294,26.205,12.882l-12.883,9.969c-3.527-4.412-7.585-7.236-13.498-7.236c-8.647,0-14.735,7.325-14.735,16.324
		v0.178c0,9.261,6.089,16.497,14.735,16.497c6.439,0,10.234-3.001,13.939-7.497l12.884,9.173
		c-5.825,8.027-13.676,13.939-27.352,13.939C328.5,108.59,314.294,95.093,314.294,76.65z"/>
	<path id="XMLID_1063_" style="fill:#FFFFFF;" d="M379.6,45.14h29.414c9.506,0,16.081,2.49,20.26,6.755
		c3.643,3.553,5.508,8.353,5.508,14.484v0.179c0,9.507-5.063,15.816-12.797,19.106l14.843,21.681h-19.904l-12.529-18.838h-7.554
		v18.838H379.6V45.14z M408.213,74.998c5.865,0,9.24-2.845,9.24-7.377v-0.176c0-4.886-3.553-7.376-9.329-7.376h-11.285v14.927
		h11.374V74.998z"/>
	<path id="XMLID_1061_" style="fill:#FFFFFF;" d="M442.874,45.152h50.028v14.664h-32.968v9.419h29.857v13.597h-29.857v9.859h33.414
		v14.664h-50.475V45.152z"/>
	<path id="XMLID_1058_" style="fill:#FFFFFF;" d="M502.374,45.152h23.995c22.214,0,35.098,12.796,35.098,30.747v0.177
		c0,17.951-13.062,31.279-35.457,31.279h-23.635L502.374,45.152L502.374,45.152z M526.635,92.07
		c10.308,0,17.149-5.687,17.149-15.727v-0.179c0-9.954-6.842-15.728-17.149-15.728h-7.021V92.07H526.635z"/>
	<path id="XMLID_1055_" style="fill:#FFFFFF;" d="M279.131,108.52c-18.259,0-31.511-13.454-31.511-31.988
		c0-18.304,12.879-32.106,29.962-32.106c9.151,0,16.749,3.407,21.974,9.854c4.767,5.88,7.392,14.164,7.392,23.325
		c0,1.057-0.08,2.037-0.176,3.157h-46.421l0.147,0.898c1.668,10.248,8.898,16.614,18.872,16.614c6.56,0,11.699-2.169,17.056-7.229
		l7.357,6.529C297.401,104.938,289.329,108.52,279.131,108.52z M277.463,54.672c-8.975,0-15.683,6.763-17.087,17.23l-0.116,0.876
		h34.025l-0.088-0.853C293.104,61.282,286.693,54.672,277.463,54.672z"/>
	<path id="XMLID_1052_" style="fill:#FFFFFF;" d="M204.257,108.52c-14.175,0-28.521-11.031-28.521-32.11
		c0-21.08,14.348-32.11,28.521-32.11c8.424,0,15.263,3.539,20.91,10.822l1.391,1.791V16.675h12.916v90.669h-12.916V95.019
		l-1.41,1.988C219.655,104.753,212.821,108.52,204.257,108.52z M207.725,55.303c-11.162,0-18.954,8.679-18.954,21.106
		c0,12.23,7.971,21.107,18.954,21.107c10.872,0,19.073-9.073,19.073-21.107C226.797,64.377,218.596,55.303,207.725,55.303z"/>
</g>
</svg>
