<?xml version="1.0" encoding="iso-8859-1"?>
<!-- Generator: Adobe Illustrator 16.0.0, SVG Export Plug-In . SVG Version: 6.00 Build 0)  -->
<!DOCTYPE svg PUBLIC "-//W3C//DTD SVG 1.1//EN" "http://www.w3.org/Graphics/SVG/1.1/DTD/svg11.dtd">
<svg version="1.1" id="Layer_1" xmlns="http://www.w3.org/2000/svg" xmlns:xlink="http://www.w3.org/1999/xlink" x="0px" y="0px"
	 width="306.741px" height="56.488px" viewBox="0 0 306.741 56.488" style="enable-background:new 0 0 306.741 56.488;"
	 xml:space="preserve">
<g>
	<g id="XMLID_287_">
		<g id="XMLID_294_">
			<path id="XMLID_295_" style="fill:#7ED5A2;" d="M30.772,32.904h12.079c4.487,0,8.138-3.652,8.138-8.139
				c0-4.488-3.65-8.139-8.138-8.139h-3.848l-8.231-7.145h12.079c8.439,0,15.282,6.843,15.282,15.283
				c0,6.402-3.939,11.886-9.525,14.159l9.524,8.268H47.234L30.772,32.904z"/>
		</g>
		<g id="XMLID_292_">
			<linearGradient id="XMLID_2_" gradientUnits="userSpaceOnUse" x1="32.1582" y1="28.3374" x2="57.9418" y2="28.3374">
				<stop  offset="0" style="stop-color:#486FFA"/>
				<stop  offset="1" style="stop-color:#7ED4A1"/>
			</linearGradient>
			<path id="XMLID_293_" style="fill:url(#XMLID_2_);" d="M30.772,32.904h12.079c4.487,0,8.138-3.652,8.138-8.139
				c0-4.488-3.65-8.139-8.138-8.139h-3.848l-8.231-7.145h12.079c8.439,0,15.282,6.843,15.282,15.283
				c0,6.402-3.939,11.886-9.525,14.159l9.524,8.268H47.234L30.772,32.904z"/>
		</g>
		<g id="XMLID_290_">
			<path id="XMLID_291_" style="fill:#4971FA;" d="M36.671,23.771H24.592c-4.485,0-8.138,3.65-8.138,8.139
				c0,4.486,3.652,8.138,8.138,8.138h3.849l8.23,7.145H24.592c-8.439,0-15.281-6.843-15.281-15.282
				c0-6.403,3.938-11.887,9.524-14.16L9.312,9.482H20.21L36.671,23.771z"/>
		</g>
		<g id="XMLID_288_">
			<linearGradient id="XMLID_3_" gradientUnits="userSpaceOnUse" x1="9.3105" y1="28.3374" x2="36.6709" y2="28.3374">
				<stop  offset="0" style="stop-color:#486FFA"/>
				<stop  offset="1" style="stop-color:#7ED4A1"/>
			</linearGradient>
			<path id="XMLID_289_" style="fill:url(#XMLID_3_);" d="M36.671,23.771H24.592c-4.485,0-8.138,3.65-8.138,8.139
				c0,4.486,3.652,8.138,8.138,8.138h3.849l8.23,7.145H24.592c-8.439,0-15.281-6.843-15.281-15.282
				c0-6.403,3.938-11.887,9.524-14.16L9.312,9.482H20.21L36.671,23.771z"/>
		</g>
	</g>
	<g>
		<path style="fill:#FFFFFF;" d="M93.788,39.721l4.747-15.912h5.318L96.25,47.193h-4.747l-5.187-15.867l-5.231,15.867h-4.747
			l-7.517-23.385h5.451l4.659,15.912l5.143-16h4.527L93.788,39.721z"/>
		<path style="fill:#FFFFFF;" d="M115.413,43.193c2.594,0,4.439-0.967,6.286-2.77l3.121,2.77c-2.198,2.637-5.231,4.352-9.495,4.352
			c-6.725,0-11.911-4.879-11.911-12.088c0-6.681,4.703-12.131,11.34-12.131c7.385,0,11.121,5.802,11.121,12.526
			c0,0.483-0.044,0.923-0.088,1.45h-17.055C109.348,41.084,111.985,43.193,115.413,43.193z M120.601,33.787
			c-0.352-3.429-2.374-6.109-5.891-6.109c-3.252,0-5.538,2.505-6.021,6.109H120.601z"/>
		<path style="fill:#FFFFFF;" d="M142.384,47.501c-3.824,0-6.242-1.935-7.868-4.088v3.604h-5.318V14.93h5.318v12.748
			c1.715-2.418,4.132-4.352,7.868-4.352c5.494,0,10.812,4.352,10.812,12.088C153.196,43.149,147.922,47.501,142.384,47.501z
			 M141.153,27.941c-3.604,0-6.77,2.945-6.77,7.473c0,4.526,3.165,7.471,6.77,7.471c3.647,0,6.637-2.855,6.637-7.471
			C147.79,30.842,144.757,27.941,141.153,27.941z"/>
	</g>
	<g>
		<path style="fill:#FFFFFF;" d="M155.713,23.802h6.802l4.047,13.437l4.479-13.503h5.541l4.479,13.503l4.047-13.437h6.669
			l-7.764,23.389h-5.606l-4.678-13.37l-4.645,13.37h-5.606L155.713,23.802z"/>
		<path style="fill:#FFFFFF;" d="M198.641,23.636h6.203l9.887,23.389h-6.9l-1.691-4.147h-8.958l-1.658,4.147h-6.769L198.641,23.636z
			 M204.28,37.868l-2.588-6.603l-2.62,6.603H204.28z"/>
		<path style="fill:#FFFFFF;" d="M216.919,23.802h6.436v17.583h11.247v5.64h-17.683V23.802z"/>
		<path style="fill:#FFFFFF;" d="M236.339,23.802h6.436v17.583h11.247v5.64h-17.683V23.802z"/>
		<path style="fill:#FFFFFF;" d="M255.759,23.802h18.678v5.474h-12.308v3.517h11.146v5.076h-11.146v3.683h12.474v5.474h-18.844
			V23.802z"/>
		<path style="fill:#FFFFFF;" d="M282.872,29.441h-6.967v-5.64h20.37v5.64h-6.968v17.583h-6.436V29.441z"/>
	</g>
</g>
</svg>
