<svg xmlns="http://www.w3.org/2000/svg" viewBox="0 0 286.96 38.06"><defs><style>.cls-1{isolation:isolate;}.cls-2{fill:#7ed5a2;}.cls-3{mix-blend-mode:soft-light;}.cls-4{fill:#3ad7a4;}.cls-5{fill:#4971fa;}.cls-6{fill:#2970ff;}.cls-7{fill:#fff;}</style></defs><title>webwallet</title><g class="cls-1"><g id="Layer_2" data-name="Layer 2"><g id="Layer_1-2" data-name="Layer 1"><g id="_Group_" data-name="&lt;Group&gt;"><g id="_Group_2" data-name="&lt;Group&gt;"><path id="_Path_" data-name="&lt;Path&gt;" class="cls-2" d="M21.46,23.42H33.54a8.14,8.14,0,0,0,0-16.28H29.69L21.46,0H33.54A15.28,15.28,0,0,1,39.3,29.44l9.52,8.27H37.92Z"/></g><g id="_Group_3" data-name="&lt;Group&gt;" class="cls-3"><path id="_Path_2" data-name="&lt;Path&gt;" class="cls-4" d="M21.46,23.42H33.54a8.14,8.14,0,0,0,0-16.28H29.69L21.46,0H33.54A15.28,15.28,0,0,1,39.3,29.44l9.52,8.27H37.92Z"/></g><g id="_Group_4" data-name="&lt;Group&gt;"><path id="_Path_3" data-name="&lt;Path&gt;" class="cls-5" d="M27.36,14.29H15.28a8.14,8.14,0,0,0,0,16.28h3.85l8.23,7.14H15.28A15.28,15.28,0,0,1,9.52,8.27L0,0H10.9Z"/></g><g id="_Group_5" data-name="&lt;Group&gt;" class="cls-3"><path id="_Path_4" data-name="&lt;Path&gt;" class="cls-6" d="M27.36,14.29H15.28a8.14,8.14,0,0,0,0,16.28h3.85l8.23,7.14H15.28A15.28,15.28,0,0,1,9.52,8.27L0,0H10.9Z"/></g></g><path class="cls-7" d="M84.48,30.24l4.75-15.91h5.32l-7.6,23.38H82.19L77,21.84,71.77,37.71H67L59.51,14.33H65l4.66,15.91,5.14-16h4.53Z"/><path class="cls-7" d="M106.1,33.71a8.43,8.43,0,0,0,6.29-2.77l3.12,2.77A11.74,11.74,0,0,1,106,38.06C99.29,38.06,94.1,33.18,94.1,26c0-6.68,4.7-12.13,11.34-12.13,7.38,0,11.12,5.8,11.12,12.53,0,.48,0,.92-.09,1.45H99.42A6.51,6.51,0,0,0,106.1,33.71Zm5.19-9.41c-.35-3.43-2.37-6.11-5.89-6.11-3.25,0-5.54,2.51-6,6.11Z"/><path class="cls-7" d="M133.07,38a9.46,9.46,0,0,1-7.87-4.09v3.6h-5.32V5.45h5.32V18.2a9.27,9.27,0,0,1,7.87-4.35c5.49,0,10.81,4.35,10.81,12.09S138.61,38,133.07,38Zm-1.23-19.56c-3.6,0-6.77,2.95-6.77,7.47s3.16,7.47,6.77,7.47,6.64-2.86,6.64-7.47S135.45,18.46,131.84,18.46Z"/><path class="cls-7" d="M146.4,14.32h6.8l4,13.44,4.48-13.5h5.54l4.48,13.5,4-13.44h6.67L174.7,37.71H169.1l-4.68-13.37-4.64,13.37h-5.61Z"/><path class="cls-7" d="M189.33,14.15h6.2l9.89,23.39h-6.9l-1.69-4.15h-9l-1.66,4.15h-6.77ZM195,28.39l-2.59-6.6-2.62,6.6Z"/><path class="cls-7" d="M207.61,14.32H214V31.9h11.25v5.64H207.61Z"/><path class="cls-7" d="M227,14.32h6.44V31.9h11.25v5.64H227Z"/><path class="cls-7" d="M246.45,14.32h18.68v5.47H252.82v3.52H264v5.08H252.82v3.68h12.47v5.47H246.45Z"/><path class="cls-7" d="M273.56,20h-7V14.32H287V20h-7V37.54h-6.44Z"/></g></g></g></svg>