<svg xmlns="http://www.w3.org/2000/svg" viewBox="0 0 40 40"><defs><style>.cls-1{fill:#b7bcc6;}.cls-2{fill:#0c1e3e;}.cls-3{fill:none;}</style></defs><title>wallet</title><g id="Layer_2" data-name="Layer 2"><g id="specctr"><path id="_Path_" data-name="&lt;Path&gt;" class="cls-1" d="M5.5,10h27V8a3,3,0,0,0-3-3H5.5a3,3,0,0,0-3,2.5A3,3,0,0,0,5.5,10Z"/><path id="_Path_2" data-name="&lt;Path&gt;" class="cls-2" d="M34.5,10H5.5a3,3,0,0,1-3-2.5h0l0,.11v.25S2.5,8,2.5,8V32a3,3,0,0,0,3,3h29a3,3,0,0,0,3-3V28.75a6.25,6.25,0,0,1,0-12.5V13A3,3,0,0,0,34.5,10Z"/><path id="_Path_3" data-name="&lt;Path&gt;" class="cls-1" d="M31.25,22.5a6.25,6.25,0,0,0,6.25,6.25V16.25A6.25,6.25,0,0,0,31.25,22.5Z"/><rect id="_Rectangle_" data-name="&lt;Rectangle&gt;" class="cls-3" width="40" height="40"/></g></g></svg>