<?xml version="1.0" encoding="iso-8859-1"?>
<!-- Generator: Adobe Illustrator 16.0.0, SVG Export Plug-In . SVG Version: 6.00 Build 0)  -->
<!DOCTYPE svg PUBLIC "-//W3C//DTD SVG 1.1//EN" "http://www.w3.org/Graphics/SVG/1.1/DTD/svg11.dtd">
<svg version="1.1" id="Layer_1" xmlns="http://www.w3.org/2000/svg" xmlns:xlink="http://www.w3.org/1999/xlink" x="0px" y="0px"
	 width="32px" height="32px" viewBox="0 0 32 32" style="enable-background:new 0 0 32 32;" xml:space="preserve">
<path id="XMLID_5_" style="fill:#69D5F7;" d="M23.68,14.25c-0.199-0.879-0.547-1.701-1.014-2.441l1.996-1.996l-1.238-1.236
	l-1.238-1.238l-1.994,1.994c-0.74-0.465-1.562-0.812-2.441-1.012V5.5H16h-1.75v2.82c-0.881,0.199-1.703,0.547-2.443,1.012
	L9.812,7.337L8.574,8.576L7.338,9.812l1.994,1.996c-0.467,0.74-0.814,1.562-1.014,2.441H5.5V16v1.75h2.818
	c0.199,0.879,0.547,1.703,1.014,2.443l-1.994,1.994l1.236,1.238l1.238,1.236l1.994-1.994c0.74,0.467,1.562,0.812,2.443,1.012v2.82
	H16h1.75v-2.82c0.879-0.199,1.701-0.545,2.441-1.012l1.994,1.994l1.238-1.236l1.238-1.238l-1.996-1.994
	c0.467-0.74,0.814-1.564,1.014-2.443h2.82V16v-1.75H23.68z M16,22.068c-3.352,0-6.07-2.717-6.07-6.068S12.648,9.931,16,9.931
	s6.068,2.717,6.068,6.068S19.352,22.068,16,22.068z"/>
</svg>
