<?xml version="1.0" encoding="iso-8859-1"?>
<!-- Generator: Adobe Illustrator 16.0.0, SVG Export Plug-In . SVG Version: 6.00 Build 0)  -->
<!DOCTYPE svg PUBLIC "-//W3C//DTD SVG 1.1//EN" "http://www.w3.org/Graphics/SVG/1.1/DTD/svg11.dtd">
<svg version="1.1" id="Layer_1" xmlns="http://www.w3.org/2000/svg" xmlns:xlink="http://www.w3.org/1999/xlink" x="0px" y="0px"
	 width="32px" height="32px" viewBox="0 0 32 32" style="enable-background:new 0 0 32 32;" xml:space="preserve">
<path id="XMLID_25_" style="fill:#69D5F7;" d="M16,7.25c2.337,0,4.534,0.91,6.187,2.562C23.84,11.465,24.75,13.663,24.75,16
	s-0.91,4.534-2.563,6.188c-1.652,1.652-3.85,2.562-6.187,2.562c-2.337,0-4.535-0.91-6.188-2.562C8.16,20.534,7.25,18.336,7.25,16
	s0.91-4.534,2.562-6.188C11.465,8.16,13.663,7.25,16,7.25 M16,5.5C10.201,5.5,5.5,10.201,5.5,16S10.201,26.5,16,26.5
	c5.799,0,10.5-4.701,10.5-10.5S21.799,5.5,16,5.5L16,5.5z"/>
</svg>
