<?xml version="1.0" encoding="iso-8859-1"?>
<!-- Generator: Adobe Illustrator 16.0.0, SVG Export Plug-In . SVG Version: 6.00 Build 0)  -->
<!DOCTYPE svg PUBLIC "-//W3C//DTD SVG 1.1//EN" "http://www.w3.org/Graphics/SVG/1.1/DTD/svg11.dtd">
<svg version="1.1" id="Layer_1" xmlns="http://www.w3.org/2000/svg" xmlns:xlink="http://www.w3.org/1999/xlink" x="0px" y="0px"
	 width="256.25px" height="284.22px" viewBox="0 0 256.25 284.22" style="enable-background:new 0 0 256.25 284.22;"
	 xml:space="preserve">
<g>
	<rect id="XMLID_232_" x="12.373" y="132.203" style="fill:#25549F;" width="12.861" height="10.049"/>
	<polygon id="XMLID_231_" style="fill:#25549F;" points="50.957,132.203 38.095,132.203 38.095,142.252 50.957,142.252 
		50.957,142.252 50.957,132.203 	"/>
	<polygon id="XMLID_230_" style="fill:#25549F;" points="50.957,152.301 38.095,152.301 25.234,152.301 25.234,162.35 
		38.095,162.35 50.957,162.35 50.957,162.35 50.957,152.301 	"/>
	<polygon id="XMLID_229_" style="fill:#25549F;" points="38.095,182.45 50.957,182.45 50.957,172.399 38.095,172.399 
		25.234,172.399 12.373,172.399 12.373,182.45 25.234,182.45 	"/>
	<polygon id="XMLID_228_" style="fill:#25549F;" points="50.957,192.499 38.095,192.499 25.234,192.499 25.234,202.547 
		38.095,202.547 50.957,202.547 50.957,202.547 50.957,192.499 	"/>
	<polygon id="XMLID_227_" style="fill:#25549F;" points="12.373,212.596 12.373,222.645 25.234,222.645 38.095,222.645 
		38.095,212.596 25.234,212.596 	"/>
	<path id="XMLID_226_" style="fill:#25549F;" d="M50.957,212.596L50.957,212.596v10.049h0.5c-0.311-1.113-0.493-2.281-0.5-3.492
		V212.596z"/>
	<polygon id="XMLID_225_" style="fill:#25549F;" points="231.017,132.203 218.156,132.203 205.294,132.203 205.294,142.252 
		218.156,142.252 231.017,142.252 243.878,142.252 243.878,132.203 	"/>
	<rect id="XMLID_224_" x="205.294" y="152.301" style="fill:#25549F;" width="0" height="10.049"/>
	<polygon id="XMLID_222_" style="fill:#25549F;" points="218.156,152.301 218.156,162.35 231.017,162.35 243.878,162.35 
		243.878,152.301 231.017,152.301 	"/>
	<polygon id="XMLID_221_" style="fill:#25549F;" points="205.294,182.45 218.156,182.45 231.017,182.45 231.017,172.399 
		218.156,172.399 205.294,172.399 205.294,172.399 205.294,182.45 	"/>
	<rect id="XMLID_218_" x="205.294" y="192.499" style="fill:#25549F;" width="0" height="10.049"/>
	<polygon id="XMLID_217_" style="fill:#25549F;" points="218.156,192.499 218.156,202.547 231.017,202.547 243.878,202.547 
		243.878,192.499 231.017,192.499 	"/>
	<path id="XMLID_216_" style="fill:#25549F;" d="M205.294,212.596v6.557c-0.008,1.211-0.189,2.379-0.5,3.492h0.5h12.861v-10.049
		H205.294L205.294,212.596z"/>
	<rect id="XMLID_214_" x="231.017" y="212.596" style="fill:#25549F;" width="12.861" height="10.049"/>
	<path id="XMLID_213_" style="fill:#25549F;" d="M64.153,122.383h119.071v-8.873c-0.043-7.271-5.926-13.154-13.195-13.197H64.153
		c-6.51-0.055-12.099,4.619-13.196,11.035v0.002v-0.002C52.054,117.766,57.643,122.439,64.153,122.383z"/>
	<path id="XMLID_203_" style="fill:#2970FF;" d="M179.572,222.645v-10.049h12.861h12.861v-7.643v-2.406h-12.861h-12.861H166.71
		h-12.861v-10.049h12.861h12.861h12.861h12.861V182.45h-12.861v-10.051h12.861V162.35h-12.861h-12.861H166.71h-12.861v-10.049
		h12.861h12.861h12.861h12.861v-2.445v-0.076v-14.2c-0.043-7.271-5.926-13.154-13.195-13.197h-8.875H64.153
		c-6.51,0.057-12.099-4.617-13.196-11.035v0.002v1.619c0,0,0,0.387,0,0.617v18.617h12.861H76.68h12.86h12.862h12.861v10.049h-12.861
		H89.541H76.68H63.818H50.957v10.049h12.861H76.68v10.049H63.818H50.957v30.148h12.861H76.68v10.049H63.818H50.957v10.049h12.861
		H76.68h12.86h12.862h12.861h12.862h12.862v10.049h-12.862h-12.862h-12.861H89.541H76.68H63.818H51.457
		c1.555,5.572,6.637,9.67,12.696,9.705h127.946c6.059-0.035,11.141-4.133,12.695-9.705h-12.361H179.572z M166.71,172.399h12.861
		v10.051H166.71V172.399z M192.433,132.203v10.049h-12.861H166.71h-12.861h-12.861h-12.862v-10.049h12.862h12.861h12.861h12.861
		H192.433z M89.541,152.301h12.862h12.861h12.862h12.862v10.049h-12.862h-12.862h-12.861H89.541V152.301z M76.68,182.45H63.818
		v-10.051H76.68h12.86v10.051H76.68z M115.264,202.547h-12.861H89.541v-10.049h12.862h12.861V202.547z M140.988,202.547h-12.862
		v-10.049h12.862V202.547z M140.988,182.45h-12.862h-12.862h-0.001h-12.86v-10.051h12.86h0.001h12.862h12.862h12.861l0,0v10.051l0,0
		H140.988z M166.71,222.645h-12.861v-10.049h12.861V222.645z"/>
	<polygon id="XMLID_202_" style="fill:#091440;" points="76.68,142.252 89.541,142.252 102.403,142.252 115.264,142.252 
		115.264,132.203 102.403,132.203 89.541,132.203 76.68,132.203 63.818,132.203 50.957,132.203 50.957,142.252 63.818,142.252 	"/>
	<polygon id="XMLID_201_" style="fill:#091440;" points="166.71,132.203 153.849,132.203 140.988,132.203 128.126,132.203 
		128.126,142.252 140.988,142.252 153.849,142.252 166.71,142.252 179.572,142.252 192.433,142.252 192.433,132.203 
		179.572,132.203 	"/>
	<polygon id="XMLID_200_" style="fill:#091440;" points="76.68,162.35 76.68,152.301 63.818,152.301 50.957,152.301 50.957,162.35 
		63.818,162.35 	"/>
	<polygon id="XMLID_191_" style="fill:#091440;" points="115.264,162.35 128.126,162.35 140.988,162.35 140.988,152.301 
		128.126,152.301 115.264,152.301 102.403,152.301 89.541,152.301 89.541,162.35 102.403,162.35 	"/>
	<polygon id="XMLID_190_" style="fill:#091440;" points="179.572,152.301 166.71,152.301 153.849,152.301 153.849,162.35 
		166.71,162.35 179.572,162.35 192.433,162.35 205.294,162.35 205.294,152.301 192.433,152.301 	"/>
	<polygon id="XMLID_189_" style="fill:#091440;" points="89.541,172.399 76.68,172.399 63.818,172.399 63.818,182.45 76.68,182.45 
		89.541,182.45 	"/>
	<polygon id="XMLID_188_" style="fill:#FFFFFF;" points="153.849,172.399 153.849,172.399 140.988,172.399 128.126,172.399 
		115.264,172.399 115.263,172.399 102.403,172.399 102.403,182.45 115.263,182.45 115.264,182.45 128.126,182.45 140.988,182.45 
		153.849,182.45 153.849,182.45 	"/>
	<rect id="XMLID_187_" x="166.71" y="172.399" style="fill:#091440;" width="12.861" height="10.051"/>
	<polygon id="XMLID_172_" style="fill:#091440;" points="76.68,202.547 76.68,192.499 63.818,192.499 50.957,192.499 
		50.957,202.547 63.818,202.547 	"/>
	<polygon id="XMLID_153_" style="fill:#091440;" points="89.541,192.499 89.541,202.547 102.403,202.547 115.264,202.547 
		115.264,192.499 102.403,192.499 	"/>
	<rect id="XMLID_152_" x="128.126" y="192.499" style="fill:#091440;" width="12.862" height="10.049"/>
	<polygon id="XMLID_151_" style="fill:#091440;" points="179.572,192.499 166.71,192.499 153.849,192.499 153.849,202.547 
		166.71,202.547 179.572,202.547 192.433,202.547 205.294,202.547 205.294,192.499 192.433,192.499 	"/>
	<path id="XMLID_149_" style="fill:#091440;" d="M76.68,222.645h12.86h12.862h12.861h12.862h12.862v-10.049h-12.862h-12.862h-12.861
		H89.541H76.68H63.818H50.957v6.557c0.007,1.211,0.189,2.379,0.5,3.492h12.361H76.68z"/>
	<rect id="XMLID_140_" x="153.849" y="212.596" style="fill:#091440;" width="12.861" height="10.049"/>
	<rect id="XMLID_139_" x="192.433" y="172.399" style="fill:#091440;" width="12.861" height="10.051"/>
	<path id="XMLID_138_" style="fill:#091440;" d="M205.294,212.596h-12.861h-12.861v10.049h12.861h12.361
		c0.311-1.113,0.492-2.281,0.5-3.492V212.596z"/>
	<g id="XMLID_136_">
		<rect id="XMLID_137_" x="50.634" y="54.287" style="fill:#FFFFFF;" width="154.982" height="23.013"/>
	</g>
	<g id="XMLID_134_">
		<g>
			<path style="fill:#FFFFFF;" d="M204.039,79.413c-0.131,0-0.264-0.029-0.389-0.094c-0.42-0.215-0.588-0.73-0.373-1.15l0.777-1.525
				c0.215-0.422,0.73-0.588,1.15-0.374c0.422,0.215,0.59,0.73,0.375,1.151l-0.777,1.525
				C204.65,79.243,204.349,79.413,204.039,79.413z"/>
		</g>
		<g>
			<path style="fill:#FFFFFF;" d="M157.121,171.432c-0.131,0-0.264-0.029-0.389-0.094c-0.42-0.215-0.588-0.73-0.373-1.15
				l1.551-3.043c0.215-0.422,0.732-0.59,1.152-0.373c0.42,0.215,0.588,0.73,0.373,1.15l-1.551,3.043
				C157.732,171.262,157.431,171.432,157.121,171.432z M161.386,163.067c-0.131,0-0.264-0.029-0.389-0.094
				c-0.42-0.215-0.588-0.73-0.373-1.15l1.551-3.043c0.215-0.42,0.732-0.588,1.15-0.373c0.422,0.215,0.59,0.73,0.375,1.15
				l-1.551,3.043C161.998,162.897,161.697,163.067,161.386,163.067z M165.65,154.702c-0.131,0-0.264-0.029-0.387-0.094
				c-0.422-0.215-0.59-0.73-0.375-1.15l1.553-3.043c0.215-0.42,0.732-0.59,1.15-0.373c0.422,0.215,0.59,0.73,0.375,1.15
				l-1.553,3.043C166.263,154.532,165.962,154.702,165.65,154.702z M169.916,146.336c-0.131,0-0.264-0.029-0.387-0.094
				c-0.422-0.215-0.59-0.73-0.375-1.15l1.551-3.043c0.215-0.422,0.732-0.588,1.152-0.373s0.588,0.73,0.373,1.15l-1.551,3.043
				C170.529,146.167,170.228,146.336,169.916,146.336z M174.181,137.971c-0.131,0-0.264-0.029-0.387-0.094
				c-0.422-0.215-0.59-0.73-0.375-1.15l1.551-3.043c0.215-0.422,0.732-0.588,1.152-0.373s0.588,0.73,0.373,1.15l-1.551,3.043
				C174.794,137.801,174.494,137.971,174.181,137.971z M178.447,129.605c-0.131,0-0.264-0.031-0.389-0.094
				c-0.42-0.215-0.588-0.73-0.373-1.152l1.551-3.041c0.215-0.422,0.732-0.588,1.15-0.375c0.422,0.215,0.59,0.73,0.375,1.152
				l-1.551,3.041C179.058,129.434,178.757,129.605,178.447,129.605z M182.712,121.24c-0.131,0-0.264-0.031-0.389-0.094
				c-0.42-0.215-0.588-0.73-0.373-1.152l1.551-3.041c0.215-0.422,0.73-0.59,1.15-0.375c0.422,0.215,0.59,0.73,0.375,1.152
				l-1.551,3.041C183.324,121.068,183.023,121.24,182.712,121.24z M186.976,112.875c-0.131,0-0.264-0.031-0.387-0.094
				c-0.422-0.215-0.59-0.73-0.375-1.152l1.551-3.041c0.215-0.422,0.732-0.59,1.152-0.375s0.588,0.73,0.373,1.152l-1.551,3.041
				C187.589,112.703,187.289,112.875,186.976,112.875z M191.242,104.51c-0.131,0-0.264-0.031-0.387-0.094
				c-0.422-0.215-0.59-0.73-0.375-1.152l1.551-3.041c0.215-0.422,0.732-0.588,1.152-0.375c0.42,0.215,0.588,0.73,0.373,1.152
				l-1.551,3.041C191.855,104.338,191.554,104.51,191.242,104.51z M195.507,96.143c-0.131,0-0.264-0.029-0.389-0.092
				c-0.42-0.215-0.588-0.73-0.373-1.152l1.551-3.041c0.215-0.422,0.732-0.588,1.15-0.375c0.422,0.215,0.59,0.73,0.375,1.152
				l-1.551,3.041C196.119,95.973,195.818,96.143,195.507,96.143z M199.773,87.778c-0.131,0-0.264-0.029-0.389-0.093
				c-0.42-0.215-0.588-0.73-0.373-1.151l1.551-3.042c0.215-0.421,0.732-0.589,1.15-0.374c0.422,0.215,0.59,0.73,0.375,1.151
				l-1.551,3.042C200.384,87.608,200.083,87.778,199.773,87.778z"/>
		</g>
		<g>
			<path style="fill:#FFFFFF;" d="M153.63,178.28h-1.713c-0.473,0-0.855-0.383-0.855-0.855s0.383-0.855,0.855-0.855h1.188
				l0.539-1.059c0.215-0.422,0.732-0.588,1.152-0.373s0.588,0.73,0.373,1.15l-0.777,1.525
				C154.246,178.1,153.953,178.28,153.63,178.28z"/>
		</g>
		<g>
			<path style="fill:#FFFFFF;" d="M145.433,178.28h-3.705c-0.473,0-0.855-0.383-0.855-0.855s0.383-0.855,0.855-0.855h3.705
				c0.473,0,0.855,0.383,0.855,0.855S145.906,178.28,145.433,178.28z M135.244,178.28h-3.708c-0.473,0-0.855-0.383-0.855-0.855
				s0.383-0.855,0.855-0.855h3.708c0.473,0,0.855,0.383,0.855,0.855S135.716,178.28,135.244,178.28z M125.052,178.28h-3.706
				c-0.473,0-0.855-0.383-0.855-0.855s0.383-0.855,0.855-0.855h3.706c0.473,0,0.855,0.383,0.855,0.855
				S125.525,178.28,125.052,178.28z M114.861,178.28h-3.705c-0.473,0-0.855-0.383-0.855-0.855s0.383-0.855,0.855-0.855h3.705
				c0.473,0,0.855,0.383,0.855,0.855S115.333,178.28,114.861,178.28z"/>
		</g>
		<g>
			<path style="fill:#FFFFFF;" d="M104.669,178.28h-1.711c-0.321,0-0.614-0.18-0.762-0.465l-0.782-1.521
				c-0.216-0.422-0.05-0.938,0.371-1.152c0.42-0.219,0.935-0.051,1.152,0.369l0.543,1.059h1.188c0.473,0,0.855,0.383,0.855,0.855
				S105.142,178.28,104.669,178.28z"/>
		</g>
		<g>
			<path style="fill:#FFFFFF;" d="M99.447,171.444c-0.311,0-0.61-0.17-0.763-0.465l-1.56-3.037c-0.216-0.42-0.05-0.936,0.371-1.152
				s0.936-0.049,1.152,0.371l1.56,3.037c0.216,0.42,0.05,0.936-0.371,1.152C99.711,171.415,99.578,171.444,99.447,171.444z
				 M95.157,163.094c-0.311,0-0.61-0.17-0.763-0.465l-1.56-3.037c-0.216-0.42-0.05-0.938,0.371-1.152
				c0.421-0.217,0.936-0.051,1.152,0.369l1.56,3.037c0.216,0.42,0.05,0.938-0.371,1.152
				C95.421,163.063,95.288,163.094,95.157,163.094z M90.867,154.743c-0.311,0-0.61-0.168-0.763-0.465l-1.56-3.035
				c-0.216-0.422-0.05-0.938,0.371-1.152c0.42-0.219,0.935-0.051,1.152,0.369l1.56,3.037c0.216,0.42,0.05,0.936-0.371,1.152
				C91.131,154.713,90.998,154.743,90.867,154.743z M86.577,146.393c-0.311,0-0.61-0.17-0.763-0.465l-1.56-3.037
				c-0.216-0.42-0.05-0.936,0.371-1.152c0.42-0.217,0.936-0.051,1.152,0.371l1.56,3.035c0.216,0.422,0.05,0.938-0.371,1.152
				C86.841,146.362,86.708,146.393,86.577,146.393z M82.287,138.041c-0.311,0-0.61-0.168-0.763-0.465l-1.56-3.035
				c-0.216-0.422-0.05-0.938,0.371-1.152c0.421-0.219,0.936-0.051,1.152,0.369l1.56,3.037c0.216,0.42,0.05,0.936-0.371,1.152
				C82.551,138.012,82.417,138.041,82.287,138.041z M77.998,129.691c-0.311,0-0.61-0.17-0.762-0.465l-1.561-3.037
				c-0.217-0.42-0.051-0.936,0.369-1.152c0.424-0.215,0.937-0.049,1.152,0.371l1.561,3.035c0.217,0.422,0.051,0.938-0.369,1.152
				C78.262,129.66,78.129,129.691,77.998,129.691z M73.708,121.342c-0.311,0-0.61-0.17-0.763-0.465l-1.561-3.037
				c-0.216-0.42-0.05-0.938,0.37-1.152c0.423-0.217,0.937-0.051,1.153,0.369l1.561,3.037c0.216,0.42,0.05,0.938-0.37,1.152
				C73.972,121.311,73.839,121.342,73.708,121.342z M69.417,112.99c-0.311,0-0.61-0.17-0.763-0.465l-1.561-3.037
				c-0.216-0.42-0.05-0.936,0.37-1.152c0.424-0.215,0.937-0.049,1.153,0.371l1.561,3.037c0.216,0.42,0.05,0.936-0.37,1.152
				C69.682,112.961,69.549,112.99,69.417,112.99z M65.127,104.641c-0.311,0-0.61-0.17-0.763-0.465l-1.561-3.037
				c-0.216-0.42-0.05-0.938,0.37-1.152c0.424-0.215,0.937-0.051,1.153,0.369l1.561,3.037c0.216,0.42,0.05,0.938-0.37,1.152
				C65.392,104.609,65.259,104.641,65.127,104.641z M60.837,96.289c-0.311,0-0.61-0.168-0.763-0.465l-1.56-3.035
				c-0.216-0.422-0.05-0.938,0.371-1.152c0.421-0.219,0.936-0.051,1.152,0.369l1.56,3.037c0.216,0.42,0.05,0.936-0.371,1.152
				C61.102,96.26,60.968,96.289,60.837,96.289z M56.547,87.94c-0.311,0-0.61-0.17-0.763-0.465l-1.56-3.037
				c-0.216-0.42-0.05-0.937,0.371-1.152c0.42-0.219,0.936-0.05,1.152,0.37l1.56,3.036c0.216,0.421,0.05,0.938-0.371,1.152
				C56.812,87.909,56.678,87.94,56.547,87.94z"/>
		</g>
		<g>
			<path style="fill:#FFFFFF;" d="M52.257,79.588c-0.311,0-0.61-0.169-0.763-0.465l-0.782-1.521c-0.216-0.421-0.05-0.938,0.37-1.152
				c0.424-0.215,0.937-0.051,1.153,0.369l0.782,1.523c0.216,0.42,0.05,0.936-0.37,1.152C52.522,79.559,52.389,79.588,52.257,79.588z
				"/>
		</g>
	</g>
	<g id="XMLID_101_">
		<path id="XMLID_132_" style="fill:#2970FF;" d="M92.182,69.472c0.671,0.706,1.553,1.341,2.876,1.341
			c1.359,0,2.33-0.812,2.33-2.064c0-1.341-0.918-2.24-3.601-2.24v-1.111c2.4,0,3.194-0.918,3.194-2.1
			c0-1.094-0.741-1.783-1.941-1.783c-0.936,0-1.729,0.477-2.399,1.147l-0.776-0.917c0.865-0.812,1.905-1.412,3.229-1.412
			c1.959,0,3.37,1.041,3.37,2.858c0,1.358-0.829,2.224-2.046,2.682v0.071c1.358,0.316,2.435,1.305,2.435,2.857
			c0,1.994-1.641,3.211-3.705,3.211c-1.8,0-2.946-0.758-3.705-1.588L92.182,69.472z"/>
		<path id="XMLID_130_" style="fill:#2970FF;" d="M101.832,69.472c0.672,0.706,1.553,1.341,2.876,1.341
			c1.359,0,2.33-0.812,2.33-2.064c0-1.341-0.918-2.24-3.601-2.24v-1.111c2.4,0,3.193-0.918,3.193-2.1c0-1.094-0.74-1.783-1.94-1.783
			c-0.935,0-1.729,0.477-2.399,1.147l-0.776-0.917c0.865-0.812,1.905-1.412,3.229-1.412c1.96,0,3.37,1.041,3.37,2.858
			c0,1.358-0.829,2.224-2.046,2.682v0.071c1.358,0.316,2.435,1.305,2.435,2.857c0,1.994-1.641,3.211-3.705,3.211
			c-1.799,0-2.946-0.758-3.705-1.588L101.832,69.472z"/>
		<path id="XMLID_128_" style="fill:#2970FF;" d="M115.081,60.227h1.518l1.217,6.299c0.229,1.252,0.459,2.487,0.688,3.74h0.07
			c0.247-1.253,0.529-2.506,0.812-3.74l1.605-6.299h1.34l1.606,6.299c0.265,1.217,0.546,2.487,0.829,3.74h0.07
			c0.229-1.253,0.44-2.506,0.653-3.74l1.217-6.299h1.428l-2.399,11.574h-1.782l-1.746-6.969c-0.194-0.9-0.388-1.73-0.547-2.629
			h-0.07c-0.195,0.898-0.389,1.729-0.582,2.629l-1.73,6.969h-1.746L115.081,60.227z"/>
		<path id="XMLID_125_" style="fill:#2970FF;" d="M134.169,63.014c2.1,0,3.971,1.641,3.971,4.518c0,2.84-1.871,4.48-3.971,4.48
			c-2.1,0-3.969-1.641-3.969-4.48C130.2,64.655,132.069,63.014,134.169,63.014z M134.169,70.813c1.482,0,2.471-1.323,2.471-3.281
			c0-1.977-0.988-3.317-2.471-3.317c-1.463,0-2.471,1.341-2.471,3.317C131.698,69.49,132.706,70.813,134.169,70.813z"/>
		<path id="XMLID_123_" style="fill:#2970FF;" d="M141.279,63.227h1.199l0.123,1.552h0.053c0.584-1.076,1.467-1.765,2.436-1.765
			c0.371,0,0.637,0.053,0.918,0.177l-0.281,1.271c-0.283-0.088-0.477-0.142-0.83-0.142c-0.725,0-1.588,0.53-2.17,1.977v5.505h-1.447
			V63.227z"/>
		<path id="XMLID_120_" style="fill:#2970FF;" d="M151.21,63.014c0.988,0,1.641,0.371,2.4,0.988l-0.07-1.465v-3.299h1.465v12.562
			h-1.201l-0.123-1.006h-0.053c-0.67,0.652-1.588,1.217-2.594,1.217c-2.152,0-3.547-1.623-3.547-4.48
			C147.488,64.743,149.253,63.014,151.21,63.014z M151.353,70.795c0.793,0,1.48-0.389,2.188-1.182v-4.482
			c-0.725-0.652-1.377-0.899-2.082-0.899c-1.377,0-2.471,1.323-2.471,3.282C148.988,69.56,149.853,70.795,151.353,70.795z"/>
		<path id="XMLID_103_" style="fill:#2970FF;" d="M158.55,69.86c0.74,0.6,1.498,1.023,2.521,1.023c1.129,0,1.693-0.6,1.693-1.341
			c0-0.882-1.023-1.271-1.957-1.623c-1.219-0.441-2.559-1.023-2.559-2.47c0-1.377,1.094-2.436,2.945-2.436
			c1.078,0,2.012,0.441,2.664,0.971l-0.688,0.918c-0.582-0.441-1.199-0.76-1.959-0.76c-1.076,0-1.57,0.582-1.57,1.235
			c0,0.794,0.936,1.112,1.906,1.482c1.234,0.458,2.611,0.97,2.611,2.594c0,1.394-1.111,2.558-3.141,2.558
			c-1.217,0-2.383-0.512-3.193-1.182L158.55,69.86z"/>
	</g>
</g>
</svg>
