<?xml version="1.0" encoding="iso-8859-1"?>
<!-- Generator: Adobe Illustrator 16.0.0, SVG Export Plug-In . SVG Version: 6.00 Build 0)  -->
<!DOCTYPE svg PUBLIC "-//W3C//DTD SVG 1.1//EN" "http://www.w3.org/Graphics/SVG/1.1/DTD/svg11.dtd">
<svg version="1.1" id="Layer_1" xmlns="http://www.w3.org/2000/svg" xmlns:xlink="http://www.w3.org/1999/xlink" x="0px" y="0px"
	 width="256.25px" height="284.22px" viewBox="0 0 256.25 284.22" style="enable-background:new 0 0 256.25 284.22;"
	 xml:space="preserve">
<g>
	<g id="XMLID_60_">
		<path id="XMLID_94_" style="fill:#FFFFFF;" d="M153.4,143.905l-4.379-2.189l-0.924-8.959l5.422-1.535l-3.615-4.067l2.012-4.157
			h0.547l-16.02-21.205l-1.219-4.273c-0.887-2.34-1.919-4.751-1.919-4.751l-0.002,0.004c-0.037,0.081-4.365,9.511-10.225,9.634
			c-5.887,0.122-16.311-13.945-16.312-13.948l0,0l-3.141,5.69c0,0,5.535,27.208,8.691,51.914c0.355,2.773,0.607,5.822,0.787,9.076
			l8.637-2.551l0.178,0.369l4.053-7.754c-1.549-14.418-3.328-24.659-3.977-28.167h-0.182l-4.375-5.557l5.996-6.806l6.689,6.929
			l-3.391,4.631c1.83,6.575,3.451,13.593,4.879,20.682c5.191-2.911,12.527-5.868,12.527-5.868l-0.043,2.861l3.908-1.955
			l1.326,12.729l1.799,0.205l-0.184,2.877l-1.252,0.395l0.754,7.25c0,0-2.066,1.918-4.85,4.076l-1.238,5.924l-7.65,2.049
			c2.756,19.994,3.902,35.449,3.902,35.449l-5.809,8.193l-6.302-8.404c0,0,0,0,0-18.699c-0.092-4.203-0.246-8.291-0.443-12.254
			c-2.744,2.174-8.039,6.195-14.717,10.451c-0.396,21.322-1.537,45.482-0.389,65.551c4.348,0.518,8.846,0.682,13.193,0.219
			c9.789-1.041,19.156-3.062,25.884-4.76c-0.518-6.262-1.221-16.703-1.559-30.281C149.716,182.747,151.771,158.073,153.4,143.905z"
			/>
		<path id="XMLID_93_" style="fill:#E5BE9E;" d="M123.078,102.405c5.859-0.123,10.188-9.553,10.225-9.634
			c0.084-0.425,0.172-0.848,0.264-1.267c8.708-2.81,13.714-13.42,16.011-28.188c1.117-7.181,0.5-13.6-1.188-18.961
			c-2.344,2.596-6.49,4.087-11.541,2.939c-7.88-1.791-8.339-13.352-18.683-8.724c-2.041,1.426-3.539,3.597-4.301,6.384
			c-1.934,7.064-0.533,17.935-0.533,17.935l-4.105-2.015c-0.807-4.031-2.432-5.484-3.676-5.993c-1.033-0.332-2.104-0.255-3.15,0.388
			c-3.424,2.105-3.391,6.461-2.816,9.607c0.445,2.434,1.814,4.575,3.865,5.959c1.357,0.916,3.018,1.777,4.553,1.895
			c-0.451,5.557-0.893,11.009-1.236,15.726C106.768,88.459,117.191,102.527,123.078,102.405z"/>
		<path id="XMLID_92_" style="fill:#091440;" d="M109.227,60.875l4.105,2.015c0,0-1.4-10.87,0.533-17.935
			c0.762-2.787,2.26-4.958,4.301-6.384c10.344-4.628,10.803,6.933,18.683,8.724c5.051,1.147,9.197-0.344,11.541-2.939
			c2.139-2.367,2.779-5.654,1.225-8.703c0,0-4.951-9.808-18.414-13.64c-11.875-3.38-22.75,3.533-25.957,13.141
			c-3.207,9.606-1.338,19.493-1.338,19.493s0.717-0.145,1.645,0.235C106.795,55.391,108.42,56.844,109.227,60.875z"/>
		<path id="XMLID_91_" style="fill:#25549F;" d="M130.123,170.065c0,0-0.732,0.621-2.066,1.676
			c0.197,3.963,0.352,8.051,0.443,12.254c0,18.699,0,18.699,0,18.699l6.302,8.404l5.809-8.193c0,0-1.146-15.455-3.902-35.449
			l-6.947,1.859L130.123,170.065z"/>
		<path id="XMLID_90_" style="fill:#25549F;" d="M126.375,144.489c0.02-1.086-0.029-2.809,0.244-3.633
			c0.352-1.057,2.408-2.494,4.992-3.942c-1.428-7.089-3.049-14.106-4.879-20.682l3.391-4.631l-6.689-6.929l-5.996,6.806l4.07,5.17
			c0,0,2.914,14.136,4.463,28.554l0.4-0.766L126.375,144.489z"/>
		<path id="XMLID_89_" style="fill:#091440;" d="M192.042,163.084c-6.73-26.92-27.098-51.483-27.098-51.483l-29.723-14.093
			l0.002,0.01l1.219,4.273l16.02,21.205h11.902l11.387,15.363l0,0c-0.818,5.217-5.488,8.939-10.756,8.576l-6.416-0.441l-5.18-2.59
			c-1.629,14.168-3.684,38.842-2.93,69.016c0.338,13.578,1.041,24.02,1.559,30.281c0.357,4.314,0.625,6.643,0.625,6.643
			c3.463-0.223,11.387-3.391,13.367-9.484c0.07-0.215,1.061-27.156,1.842-52.434c6.305,4.926,15.098,5.578,17.678,4.158
			C188.597,190.407,195.298,176.11,192.042,163.084z"/>
		<path id="XMLID_88_" style="fill:#091440;" d="M147.324,151.215l-1.727,8.268c2.783-2.158,4.85-4.076,4.85-4.076l-0.754-7.25
			l-6.727,2.125L147.324,151.215z"/>
		<g id="XMLID_67_">
			<path id="XMLID_87_" style="fill:none;" d="M131.156,138.61c0.914-0.592,2.523-1.484,4.31-2.433
				C133.682,137.125,132.072,138.016,131.156,138.61z"/>
			<path id="XMLID_69_" style="fill:#091440;" d="M148.003,131.952l-3.908,1.955c0,0-12.218,8.029-14.302,8.029
				c-2.082,0-1.332-1.416,1-3.082c0.104-0.074,0.229-0.156,0.363-0.244c0.916-0.594,2.525-1.484,4.31-2.433
				c3.918-2.081,8.66-4.423,8.66-4.423l0.012-0.709c0,0-7.336,2.957-12.527,5.868c-2.584,1.448-4.641,2.886-4.992,3.942
				c-0.273,0.824-0.225,2.547-0.244,3.633l0.064,0.693c0.189,2.074,1.949,1.555,4.109,1.115l5.621-1.562l8.814-0.555l4.346,0.5
				L148.003,131.952z"/>
			<path id="XMLID_68_" style="fill:#2970FF;" d="M131.156,138.61c-0.135,0.088-0.26,0.17-0.363,0.244
				c-2.332,1.666-3.082,3.082-1,3.082c2.084,0,14.302-8.029,14.302-8.029l0.033-2.152l0,0c0,0-4.744,2.342-8.662,4.423
				C133.68,137.125,132.07,138.018,131.156,138.61z"/>
		</g>
		<path id="XMLID_66_" style="fill:#E5BE9E;" d="M149.904,127.154l3.615,4.067l-5.422,1.535l0.924,8.959l4.379,2.189l5.18,2.59
			l6.416,0.441c5.268,0.363,9.938-3.359,10.756-8.576l0,0l-11.387-15.363h-11.902h-0.547L149.904,127.154z"/>
		<path id="XMLID_64_" style="fill:#091440;" d="M113.34,182.192c6.678-4.256,11.973-8.277,14.717-10.451
			c1.334-1.055,2.066-1.676,2.066-1.676l-0.361-0.75l-7.844-16.359l-0.178-0.369l-8.637,2.551c-0.18-3.254-0.432-6.303-0.787-9.076
			c-3.156-24.706-8.691-51.913-8.691-51.913v-0.001l-5.539,5.882L69.609,113.96c0,0-21.836,29.978-12.199,80.63
			c5.076,2.969,10.963,3.82,17.145,3.281c0.242,4.203,0.447,7.762,0.594,10.371c1.119,19.859,1.119,35.523,1.119,35.523
			s11.285,10.947,37.047,9.297c-0.143-1.734-0.26-3.516-0.363-5.32C111.803,227.674,112.943,203.514,113.34,182.192z"/>
		<path id="XMLID_63_" style="fill:#E5BE9E;" d="M129.762,169.315l6.947-1.859l7.65-2.049l1.238-5.924l1.727-8.268l-4.357-0.934
			l6.727-2.125l1.252-0.395l0.184-2.877l-1.799-0.205l-4.346-0.5l-8.814,0.555l-5.621,1.562c-2.16,0.439-3.92,0.959-4.109-1.115
			l-0.064-0.693l-0.004-0.053l-0.4,0.766l-4.053,7.754L129.762,169.315z"/>
	</g>
	<g id="XMLID_55_" style="opacity:0.5;">
		<polygon id="XMLID_59_" style="fill:#091440;" points="133.449,209.293 135.222,246.077 135.222,210.506 134.802,211.098 		"/>
		<path id="XMLID_58_" style="fill:#091440;" d="M124.068,91.696c-5.824-1.328-13.15-6.455-15.174-18.984
			c-0.043,0.007-0.086,0.008-0.131,0.013c1.01,13.952,8.545,19.823,14.592,21.457c3.447,0.933,6.457,0.958,9.1,0.216
			c0.539-0.954,0.838-1.604,0.848-1.626c0.084-0.425,0.172-0.848,0.264-1.267C130.787,92.4,127.633,92.508,124.068,91.696z"/>
		<path id="XMLID_57_" style="fill:#091440;" d="M126.732,116.232c0.012,0.048,0.025,0.097,0.039,0.144
			c1.953-0.348,3.854-0.854,6.502-1.921l-3.15-2.854L126.732,116.232z"/>
		<path id="XMLID_56_" style="fill:#091440;" d="M121.508,116.648l-4.07-5.17l-3.482,3.557
			C116.451,115.595,118.699,116.411,121.508,116.648z"/>
	</g>
	<g id="XMLID_49_" style="opacity:0.5;">
		<path id="XMLID_54_" style="fill:#091440;" d="M148.097,132.756L148.097,132.756l5.422-1.535l-3.615-4.067l2.012-4.157
			l-2.012,4.157l2.012-4.157h0.547l0,0l-16.02-21.205c0,0,4.473,16.705,6.607,29.703c0.582-0.243,0.943-0.391,1.043-0.431
			c0.023-0.009,0.045-0.019,0.045-0.019l0,0l-0.043,2.861l3.908-1.955l1.326,12.729l1.799,0.205l-0.184,2.877l-1.252,0.395
			l0.754,7.25c0,0-2.066,1.918-4.85,4.076l-0.473,2.266c0.361,9.164,0.746,20.457,1.246,34.293c0.957,26.541-2.416,49-2.422,49.033
			c2.959-0.627,5.689-1.27,8.08-1.873c-0.518-6.262-1.221-16.703-1.559-30.281c-0.271-10.85-0.178-20.982,0.127-30.178
			c-0.006,0.205-0.014,0.404-0.021,0.611c0.008-0.207,0.016-0.406,0.021-0.611c0.021-0.639,0.043-1.273,0.066-1.902
			c0.012-0.312,0.023-0.625,0.035-0.936c0.025-0.631,0.051-1.258,0.076-1.879c0.012-0.266,0.021-0.535,0.033-0.799
			c0.262-5.979,0.609-11.496,0.992-16.486c-0.01,0.111-0.018,0.215-0.027,0.326c0.01-0.111,0.018-0.215,0.027-0.326
			c0.064-0.846,0.129-1.682,0.195-2.496c0.002-0.002,0.002-0.006,0.002-0.008c0.066-0.824,0.135-1.625,0.205-2.416
			c0.016-0.195,0.033-0.391,0.051-0.584c0.139-1.562,0.277-3.061,0.418-4.49c0.018-0.174,0.035-0.346,0.053-0.518
			c0.229-2.291,0.455-4.406,0.676-6.324l-4.379-2.189L148.097,132.756z"/>
		<path id="XMLID_53_" style="fill:#091440;" d="M152.253,155.239c-0.018,0.193-0.035,0.387-0.051,0.58
			C152.218,155.625,152.236,155.432,152.253,155.239z"/>
		<path id="XMLID_52_" style="fill:#091440;" d="M150.775,178.024c0.012-0.266,0.021-0.533,0.033-0.797
			C150.796,177.491,150.787,177.758,150.775,178.024z"/>
		<path id="XMLID_51_" style="fill:#091440;" d="M152.724,150.231c-0.018,0.17-0.035,0.342-0.051,0.514
			C152.689,150.573,152.707,150.401,152.724,150.231z"/>
		<path id="XMLID_50_" style="fill:#091440;" d="M150.664,180.84c0.012-0.312,0.023-0.625,0.035-0.936
			C150.687,180.215,150.675,180.528,150.664,180.84z"/>
	</g>
</g>
</svg>
