<?xml version="1.0" encoding="iso-8859-1"?>
<!-- Generator: Adobe Illustrator 16.0.0, SVG Export Plug-In . SVG Version: 6.00 Build 0)  -->
<!DOCTYPE svg PUBLIC "-//W3C//DTD SVG 1.1//EN" "http://www.w3.org/Graphics/SVG/1.1/DTD/svg11.dtd">
<svg version="1.1" id="Layer_1" xmlns="http://www.w3.org/2000/svg" xmlns:xlink="http://www.w3.org/1999/xlink" x="0px" y="0px"
	 width="256.25px" height="284.22px" viewBox="0 0 256.25 284.22" style="enable-background:new 0 0 256.25 284.22;"
	 xml:space="preserve">
<g>
	<g>
		<g id="XMLID_238_">
			<path id="XMLID_281_" style="fill:none;" d="M135.266,84.993c0.075,0.075,0.116,0.177,0.122,0.283l0.395-0.272l-1.001-0.495
				L135.266,84.993z"/>
			<path id="XMLID_280_" style="fill:#DB9583;" d="M70.753,52.394c1.246,0.98,2.572,1.667,3.911,1.925
				c4,0.771,7.747-3.106,10.633-7.735c2.155,0.292,4.031-0.238,4.031-0.238s-0.923-3.131-0.094-7.582
				c0.06-0.146,0.12-0.294,0.177-0.438c0.61-1.543,1.052-2.869,1.29-3.775c0.831-3.159,0.897-6.346,0.274-9.221
				c-2.306-2.42-8.025-5.602-13.409-0.852c-5.399,4.764-3.679,9.761-3.679,9.761l-2.562,0.929c-0.017-2.711-1.224-5.489-3.335-4.973
				c-2.014,0.492-2.686,2.635-2.9,4.271c-0.166,1.264,0.168,2.531,0.955,3.535c0.652,0.83,1.548,1.691,2.494,1.793
				c-2.622,2.767-6.521,0.979-7.804,0.27l-4.067,6.578l12.886,8.241L70.753,52.394z"/>
			<path id="XMLID_279_" style="fill:#091440;" d="M68.54,39.794c-0.946-0.102-1.842-0.963-2.494-1.793
				c-0.787-1.004-1.121-2.271-0.955-3.535c0.215-1.637,0.887-3.779,2.9-4.271c2.111-0.517,3.318,2.262,3.335,4.973l2.562-0.929
				c0,0-1.721-4.997,3.679-9.761c5.384-4.75,11.104-1.568,13.409,0.852c0.623,2.875,0.557,6.062-0.274,9.221
				c-0.238,0.906-0.68,2.232-1.29,3.775c2.038,0.163,2.864-0.465,2.864-0.465s0,0-0.112-2.239c-0.045-0.912,0.375-1.792,0.842-2.933
				c0.678,2.526,1.873,3.4,1.873,3.4s0,0-0.237-1.119c-0.235-1.112,0.23-7.175-0.771-11.023c-0.002-0.01-0.005-0.02-0.007-0.029
				c-0.003-0.01-0.005-0.021-0.008-0.032l-0.001,0.002c-1.312-5.511-7.572-10.427-19.732-11.413c-0.472-0.06-1.02-0.098-1.675-0.117
				c-0.07-0.003-0.135-0.011-0.205-0.014c-0.066-0.004-0.132,0.002-0.198,0.004c-0.228-0.004-0.461-0.008-0.718-0.008
				c-7.535,0-13.426,4.724-12.766,18.734c0.116,2.453,1.745,8.736,1.745,8.736s0.158,0.104,0.43,0.254
				C62.019,40.773,65.917,42.561,68.54,39.794z"/>
			<path id="XMLID_278_" style="fill:#DB9583;" d="M80.182,149.532c0.245,4.526,0.281,10.276,0.167,16.782h2.618l2.391-15.852
				l-6.729-34.551c1.525,18.113,2.303,33.418,2.303,33.418C80.707,149.402,80.455,149.468,80.182,149.532z"/>
			<path id="XMLID_277_" style="fill:#4C60AA;" d="M78.481,114.183l1.043-0.224l-1.236-7.724c-0.168,0.086-0.335,0.172-0.502,0.258
				C78.032,109.082,78.263,111.656,78.481,114.183z"/>
			<path id="XMLID_276_" style="fill:#DB9583;" d="M62.677,262.296l0.031-0.641c0,0,5.471,7.377,11.561,0.056
				c0.035-0.279,0.071-0.562,0.1-0.866h-11.76C62.632,261.351,62.655,261.833,62.677,262.296z"/>
			<path id="XMLID_275_" style="fill:#091440;" d="M78.637,205.163l-0.44,6.894C78.347,209.771,78.495,207.47,78.637,205.163z"/>
			<path id="XMLID_272_" style="fill:#091440;" d="M80.182,149.532c-8.354,1.948-38.414,0.3-45.341-0.113
				c0.142,14.718,0.076,41.587-2.042,52.372c-4.501,22.916-3.563,42.708-3.511,59.055h10.849h1.746l6.943-49.883l9.703-52.545
				c0,0,3.841,28.523,1.959,45.534c-1.412,12.767-0.279,42.733,0.374,56.894h1.746h11.76c0.818-8.711,2.455-27.963,3.819-48.648
				c-2.776,0-5.381-1.135-6.679-3.375c1.298-2.241,4.357-3.752,7.133-3.752c0.838-13.588,1.506-27.338,1.707-38.756
				C80.463,159.808,80.427,154.058,80.182,149.532z M41.782,212.574c-2.776,0-5.194-1.512-6.492-3.752
				c1.298-2.241,3.716-3.752,6.492-3.752s5.194,1.511,6.493,3.752C46.976,211.062,44.558,212.574,41.782,212.574z"/>
			<path id="XMLID_271_" style="fill:#DB9583;" d="M29.292,262.165c0,0.321,0,0.614,0,0.903c2.551,2.537,4.768,1.666,7.051-0.254
				c1.088-0.915,2.484-1.086,3.661-1.012l0.133-0.957H29.289C29.29,261.285,29.292,261.731,29.292,262.165z"/>
			<path id="XMLID_270_" style="fill:#25549F;" d="M62.708,261.656l-0.031,0.641l-0.451,9.316c0,0,27.386,0,33.105,0
				c0-2.038-0.693-3.51-9.014-5.763c-8.319-2.253-12.001-4.194-12.001-4.194c-0.017,0.02-0.032,0.036-0.048,0.056
				C68.179,269.033,62.708,261.656,62.708,261.656z"/>
			<path id="XMLID_269_" style="fill:#25549F;" d="M36.343,262.814c-2.283,1.92-4.5,2.791-7.051,0.254
				c-0.039-0.039-0.078-0.071-0.117-0.112v8.657h22.233c0,0,0.331-1.686-0.993-3.264s-8.032-6.07-8.032-6.07
				s-1.05-0.395-2.379-0.477C38.828,261.728,37.431,261.899,36.343,262.814z"/>
			<path id="XMLID_266_" style="fill:#6ED3F3;" d="M75.971,107.402c-7.136,3.475-17.562,4.242-17.562,4.242s-2.399-3.66-5.591-8.953
				c-0.31,0.269-0.797,0.223-1.039-0.131l-5.36-7.854c-0.218-0.319-0.142-0.753,0.172-0.979c2.355-1.689,11.494-8.102,15.564-8.855
				c0.342-0.063,0.674,0.138,0.791,0.465l2.914,8.137c0.132,0.367-0.055,0.773-0.422,0.906c-0.135,0.049-0.289,0.105-0.458,0.17
				c0.271,0.609,0.425,0.963,0.425,0.963l10.985-2.32c-1.583-13.615-3.572-25.968-5.955-31.934v-5.812l-0.881-0.563l-12.886-8.241
				l-1.423-0.91l-3.662,5.184c-4.918,3.165-12.738,8.788-15.354,14.021c-3.921,7.841-2.823,84.394-2.823,84.394
				s0.516,0.034,1.435,0.089c6.927,0.413,36.986,2.062,45.341,0.113c0.272-0.063,0.524-0.13,0.749-0.202
				c0,0-0.777-15.305-2.303-33.418c-0.048-0.574-0.098-1.15-0.147-1.729c-0.218-2.527-0.449-5.102-0.695-7.689
				C77.175,106.806,76.568,107.111,75.971,107.402z M47.091,62.383c0.079,0.036,0.161,0.081,0.244,0.134
				C47.253,62.47,47.172,62.427,47.091,62.383z"/>
			<path id="XMLID_265_" style="fill:#DB9583;" d="M71.509,208.822c1.298,2.24,3.902,3.375,6.679,3.375l0,0l0.009-0.141l0.44-6.894
				l0.006-0.093h-0.001C75.867,205.07,72.807,206.581,71.509,208.822z"/>
			<path id="XMLID_264_" style="fill:#DB9583;" d="M41.782,205.07c-2.776,0-5.194,1.511-6.492,3.752
				c1.298,2.24,3.716,3.752,6.492,3.752s5.194-1.512,6.493-3.752C46.976,206.581,44.558,205.07,41.782,205.07z"/>
			<path id="XMLID_263_" style="fill:#DB9583;" d="M47.335,62.517c-0.083-0.053-0.165-0.098-0.244-0.134
				C47.172,62.427,47.253,62.47,47.335,62.517z"/>
			<path id="XMLID_262_" style="fill:#25549F;" d="M65.86,93.474l-2.914-8.137c-0.117-0.327-0.449-0.528-0.791-0.465
				c-4.07,0.754-13.209,7.166-15.564,8.855c-0.313,0.226-0.39,0.659-0.172,0.979l5.36,7.854c0.242,0.354,0.729,0.399,1.039,0.131
				c0.031-0.027,0.069-0.04,0.096-0.074c3.56-4.485,9.582-7.121,12.066-8.066c0.169-0.064,0.323-0.121,0.458-0.17
				C65.805,94.248,65.992,93.841,65.86,93.474z"/>
			<path id="XMLID_261_" style="fill:#091440;" d="M223.319,257.457v0.783c0,2.359-1.182,4.561-3.148,5.864l-7.139,4.731
				c-0.997,0.568-1.613,1.629-1.613,2.777h25.209c0,0,0.869-4.627,0.174-7.455c-0.301-1.223-1.006-2.833-0.931-4.029l0.168-2.672
				H223.319z"/>
			<path id="XMLID_260_" style="fill:#091440;" d="M179.816,263.242c-0.019,0.007-0.036,0.014-0.054,0.021
				c-7.688,3.174-10.183,4.974-12.645,5.803c-1.044,0.352-1.748,1.38-1.748,2.547h19.762l4.067-1.333l0.007,1.333h7.731l1.226-6.434
				l-0.614-4.199l0.202-3.523h-13.529C183.802,260.066,182.149,262.277,179.816,263.242z"/>
			<path id="XMLID_259_" style="fill:#3AD7A4;" d="M171.816,134.802l0.148-1.178C171.916,134.016,171.861,134.416,171.816,134.802z"
				/>
			<path id="XMLID_255_" style="fill:#3AD7A4;" d="M230.002,198.07c-4.398-16.977-6.38-27.83-7.215-34.949
				c-1.081-9.225-2.906-16.829-6.901-25.213c-0.107-0.227-2.511-4.279-4.61-7.825l0.034,0.06c0,0-1.007,0.516-2.657,1.292
				l-1.25-3.375c1.281-0.649,2.04-1.075,2.04-1.075c-0.734-1.244-1.243-2.111-1.291-2.21c0,0-4.76,4.375-16.889,6.204
				c-12.128,1.83-18.432-3.473-18.432-3.473c-0.231,1.43-0.434,2.828-0.621,4.207c0.018,0.02,0.52,0.535,1.77,1.145l-0.38,3.074
				c-1.159-0.57-1.789-1.01-1.796-1.015c-4.004,34.558,5.322,53.2,8.025,69.476c2.891,17.402,3.988,47.358,3.988,53.064h0.403
				h13.529h0.837c3.594-20.418,6.846-29.16,2.966-52.495c-0.958-5.761-1.616-13.231-2.063-21.288l0.001,0.005l-0.26-7.384
				c8.372,20.749,18.268,49.846,23.086,81.162h1.002h12.72h1.118C237.157,257.457,239.837,230.638,230.002,198.07z M184.572,138.558
				v1.029l-5.34-1.012v-0.697c-1.981-0.445-3.6-1.03-4.816-1.568l0.381-3.09c1.066,0.432,2.517,0.864,4.436,1.176v-0.749l5.34,0.578
				v0.604c0.24,0.004,0.465,0.014,0.714,0.014c2.094,0,4.348-0.336,6.607-0.863l0.636,3.576c-2.268,0.586-4.44,0.975-6.308,1.013
				C185.657,138.581,185.107,138.576,184.572,138.558z M193.359,137.335l-0.633-3.559c5.426-1.379,10.772-3.783,13.906-5.332
				l1.242,3.352C204.354,133.425,198.665,135.871,193.359,137.335z"/>
			<path id="XMLID_254_" style="fill:#091440;" d="M191.263,130.978c12.129-1.829,16.889-6.204,16.889-6.204
				c-3.146-12.58,7.3-26.435-1.123-48.523c-3.219-8.442-9.157-10.558-13.763-10.784c-4.819,4.872-9.684,7.986-13.725,8.99
				l-0.37-1.508c-1.894,0.68-3.985,1.168-6.23,1.508c0,0-1.313-1.576-2.318-3.662c-1.759,1.565-3.102,3.525-3.834,5.07
				c-0.855,1.802-3.12,7.965-4.907,12.926l14.944,10.137l1.438-3.245c1.523,1.907,5.826,6.343,14.896,9.674
				c-2.959,4.701-6.387,9.03-9.958,12.405c-4.346-1.023-8.735-3.688-12.719-6.872c0.04,0.531,0.085,1.058,0.132,1.579
				c0.742,8.186,2.218,15.037,2.218,15.037S179.135,132.808,191.263,130.978z"/>
			<path id="XMLID_253_" style="fill:#FDC6B9;" d="M184.42,69.191l-1.323-6.089l-0.192,8.071c-1.124,0.709-2.379,1.289-3.733,1.775
				l0.37,1.508c4.041-1.004,8.905-4.118,13.725-8.99c0,0,0.001-0.001,0.001-0.002l-0.568-1.459
				C190.175,66.513,187.082,68.683,184.42,69.191z"/>
			<path id="XMLID_252_" style="fill:#FDC6B9;" d="M169.616,65.443c1.201-5.459,1.764-5.117,3.226-9.427
				c1.463-4.31-0.786-5.278-2.643-9.13c-0.874-1.812-0.632-3.895-0.131-5.592c0.779-2.643-0.357-5.519-2.705-6.752
				c-0.004-0.001-0.007-0.001-0.011-0.002l-0.543,4.574c0,0-5.028,0.811-9.069,1.082c-0.148,2.15,0.063,4.41,0.652,6.652
				c0.26,0.984,0.761,2.47,1.458,4.188c0.782,4.464-0.94,7.606-0.94,7.606s2.383,0.565,4.871,0.212
				C165.47,61.57,167.456,64.025,169.616,65.443L169.616,65.443z"/>
			<path id="XMLID_249_" style="fill:#ED6D47;" d="M172.941,74.457c2.245-0.34,4.337-0.828,6.23-1.508
				c1.354-0.486,2.609-1.066,3.733-1.775l0.192-8.071l1.323,6.089c2.661-0.508,5.755-2.678,8.278-5.186
				c2.406-2.393,4.293-5.094,4.775-6.963c1.174-4.556,0.137-7.633-1.276-9.773c-1.943-2.945-3.14-2.515-4.092-8.938
				c-0.895-6.032-2.943-10.257-8.148-12.297c-1.829-0.968-3.935-1.396-6.19-1.396c-0.136,0-0.253,0.002-0.381,0.004
				c-0.576-0.01-1.146,0.013-1.723,0.062c-0.332,0.025-0.631,0.059-0.907,0.1c-2.104,0.275-4.438,0.863-7.776,1.521
				c-3.995,0.788-6.502,2.525-7.985,3.987c-4.161,3.162-4.315,9.955-4.315,9.955c0.502,0.024,1.082,0.021,1.707,0
				c-0.112,1.432-0.051,4.045,1.308,7.002c2.326,5.064-0.633,11.234-0.526,17.938c0.039,2.461,1.007,5.699,2.989,7.119
				c3.422-0.646,4.511-0.646,4.511-0.646l-1.358-4.964l2.852,4.835c0,0,1.657-0.946,3.777-2.458c0.19,0.588,0.425,1.162,0.685,1.701
				C171.627,72.88,172.941,74.457,172.941,74.457z M163.781,58.856c-2.488,0.354-4.871-0.212-4.871-0.212s1.723-3.143,0.94-7.606
				c-0.697-1.719-1.198-3.204-1.458-4.188c-0.589-2.242-0.801-4.502-0.652-6.652c4.041-0.271,9.069-1.082,9.069-1.082l0.543-4.574
				c0.004,0.001,0.007,0.001,0.011,0.002c2.348,1.233,3.484,4.109,2.705,6.752c-0.501,1.697-0.743,3.779,0.131,5.592
				c1.856,3.852,4.105,4.82,2.643,9.13c-1.462,4.31-2.024,3.968-3.226,9.427l0,0C167.456,64.025,165.47,61.57,163.781,58.856z"/>
			<polygon id="XMLID_248_" style="fill:#091440;" points="135.783,85.003 137.917,86.057 145.425,82.205 137.479,77.908 
				130.391,80.123 130.391,82.339 132.389,83.326 134.782,84.508 			"/>
			<path id="XMLID_247_" style="fill:#FDC6B9;" d="M183.201,117.761c3.571-3.375,6.999-7.704,9.958-12.405
				c-9.069-3.331-13.372-7.767-14.896-9.674l-1.438,3.245l-14.944-10.137l-2.659-1.803l-11.883-5.764l-1.914,0.98l-7.509,3.853
				l-2.134-1.054l-0.395,0.272l-1.432,0.987l0.06,0.584l0.827,8.07h13.08c0,0,3.218,20.394,17.155,23.674
				c1.903-1.799,3.763-3.871,5.535-6.123c-0.047-0.521-0.092-1.048-0.132-1.579C174.465,114.073,178.855,116.738,183.201,117.761z"
				/>
			<path id="XMLID_246_" style="fill:#091440;" d="M173.98,132.857c-1.25-0.609-1.752-1.125-1.77-1.145l-0.004-0.004l-0.242,1.916
				l-0.148,1.178l-0.014,0.113l0.002,0.001c0.007,0.005,0.637,0.444,1.796,1.015L173.98,132.857z"/>
			<path id="XMLID_245_" style="fill:#091440;" d="M193.359,137.335c5.306-1.465,10.995-3.91,14.516-5.539l-1.242-3.352
				c-3.134,1.549-8.48,3.953-13.906,5.332L193.359,137.335z"/>
			<path id="XMLID_244_" style="fill:#091440;" d="M208.653,131.434c1.65-0.776,2.657-1.292,2.657-1.292l-0.034-0.06l-1.833-3.099
				l0,0c0,0-0.759,0.426-2.04,1.075L208.653,131.434z"/>
			<path id="XMLID_243_" style="fill:#091440;" d="M184.572,138.558c0.535,0.018,1.085,0.022,1.649,0.011
				c1.867-0.038,4.04-0.427,6.308-1.013l-0.636-3.576c-2.26,0.527-4.514,0.863-6.607,0.863c-0.249,0-0.474-0.01-0.714-0.014v-0.604
				l-5.34-0.578v0.749c-1.919-0.312-3.369-0.744-4.436-1.176l-0.381,3.09c1.217,0.538,2.835,1.123,4.816,1.568v0.697l5.34,1.012
				V138.558z"/>
			<path id="XMLID_242_" style="fill:#DB9583;" d="M110.041,89.263l-0.189-1.821l-3.552-0.103l-0.036-0.07l-0.458,0.055
				l-1.893-0.055l-4.128,0.777l-3.163,0.379h-0.003l-0.062-3.192l-4.186,1.124l-3.079,4.112L76.39,93.193l-10.985,2.32
				c0,0-0.154-0.354-0.425-0.963c-2.484,0.945-8.507,3.581-12.066,8.066c-0.026,0.034-0.064,0.047-0.096,0.074
				c3.191,5.293,5.591,8.953,5.591,8.953s10.427-0.768,17.562-4.242c0.597-0.291,1.204-0.596,1.814-0.908
				c0.167-0.086,0.334-0.172,0.502-0.258c6.53-3.385,13.295-7.638,13.295-7.638l10.392,2.843l6.13-4.812
				c0,0,0.844-0.998,1.073-0.998c0.23,0,1.02-5,1.02-5l-0.002,0.001l-6.075,1.81L110.041,89.263z"/>
			<path id="XMLID_241_" style="fill:#091440;" d="M111.094,87.136l-0.141-1.351l-0.093-0.888l-0.113-1.097l-0.9-8.634l-2.407,1.203
				l0.026-1.762c0,0-10.139,4.085-10.789,6.041c-0.183,0.548-0.133,1.746-0.153,2.393l0.098,5.383l3.163-0.379l4.128-0.777
				l1.893,0.055l0.458-0.055l0.036,0.07l3.552,0.103l0.189,1.821l-5.921,3.178l6.075-1.81c0.711-0.606,1.157-1.02,1.157-1.02
				L111.094,87.136z"/>
			<path id="XMLID_240_" style="opacity:0.5;fill:#2970FF;" d="M99.248,79.417c-1.437,1.025-1.898,1.898-0.615,1.898
				c1.282,0,8.808-4.945,8.808-4.945v-1.315C107.44,75.055,100.685,78.39,99.248,79.417z"/>
			<polygon id="XMLID_239_" style="fill:#2F74FB;" points="185.131,271.613 187.063,271.613 189.206,271.613 189.199,270.28 			"/>
		</g>
		<g id="XMLID_234_" style="opacity:0.5;">
			<path id="XMLID_237_" style="fill:#091440;" d="M51.779,102.56l-5.36-7.854c-0.218-0.319-0.142-0.753,0.172-0.979
				c0.091-0.064,0.208-0.148,0.317-0.227c-1.608-2.796-3.753-6.631-5.656-10.388c0.929,2.794,1.864,5.579,2.638,7.822
				c2.554,7.406,13.747,26.3,13.747,26.3l20.623-5.592l-0.484-5.145c-0.606,0.311-1.21,0.613-1.804,0.902
				c-7.136,3.475-17.562,4.242-17.562,4.242s-2.399-3.66-5.591-8.953C52.508,102.959,52.021,102.914,51.779,102.56z"/>
			<polygon id="XMLID_236_" style="fill:#091440;" points="69.554,54.883 68.188,61.286 70.446,61.286 70.446,61.286 70.435,61.204 
							"/>
			<path id="XMLID_235_" style="fill:#091440;" d="M171.327,111.552c-9.196-7.07-16.449-17.24-16.449-17.24h-0.91
				c1.096,2.542,2.397,5.335,3.69,7.572c3.218,5.57,10.911,13.046,10.915,13.049v0.001l0.007-0.009l2.024-2.566
				c0.003,0.037,0.007,0.073,0.01,0.109L171.327,111.552z"/>
		</g>
		<path id="XMLID_233_" style="opacity:0.5;fill:#091440;" d="M192.178,159.803L192.178,159.803l7.312,23.87l0.001,0.005
			l-0.26-7.384C196.674,169.96,194.262,164.407,192.178,159.803z"/>
	</g>
	<path style="fill:#FFFFFF;" d="M129.274,42.466H110.44c-1.649,0-3,1.35-3,3v15.738V64.3v7.508l4.509-4.508h15.816l4.509,4.508V64.3
		v-3.096V45.466C132.274,43.816,130.923,42.466,129.274,42.466z"/>
	<g>
		<g>
			<g id="XMLID_36_">
				<rect id="XMLID_40_" x="112.615" y="53.979" style="fill:#6ED3F3;" width="11.769" height="6.335"/>
				<rect id="XMLID_39_" x="115.331" y="49.453" style="fill:#2970FF;" width="11.769" height="6.335"/>
				<rect id="XMLID_38_" x="120.762" y="50.357" style="fill:#FFFFFF;" width="0.905" height="4.526"/>
				<rect id="XMLID_37_" x="118.952" y="52.167" style="fill:#FFFFFF;" width="4.526" height="0.905"/>
			</g>
		</g>
	</g>
</g>
</svg>
